<svg xmlns="http://www.w3.org/2000/svg" xmlns:xlink="http://www.w3.org/1999/xlink" viewBox="0 0 1020 611.5"><defs><style>.b5f93f5e-929d-461e-93de-6bf107b7cbb2{isolation:isolate;}.e4728cfb-6a5d-4918-8afe-4b0ee2ebe943{fill:red;}.f2996db2-87a6-4cbf-8935-6f63137153a6{fill:#c00;}.aa784806-e7d2-4fe0-939f-8757e6e40b36{fill:#900;}.e2c2f6cf-9890-43b9-be9b-4198f67db916{fill:#600;}.a4e6047c-c52c-42eb-a195-f1e153b6b126{font-size:52.82px;font-family:AndaleMono, Andale Mono;}.a4e6047c-c52c-42eb-a195-f1e153b6b126,.e9e2460e-12b1-4296-b823-d4e7113fdae7{fill:#c33;}.e02fa56e-236a-4208-8696-20f17cd54662{fill:#f99;}.ba209fec-e04a-476c-88b0-de359a95d3cf{fill:#f66;}.a322a6f5-ca74-41db-b611-94f18d981d46{mix-blend-mode:hard-light;fill:url(#ac0b64d7-4387-46e7-a4e2-0fb6ef3087f5);}</style><linearGradient id="ac0b64d7-4387-46e7-a4e2-0fb6ef3087f5" x1="396.4" y1="455.45" x2="396.4" y2="-3" gradientUnits="userSpaceOnUse"><stop offset="0" stop-color="#240006" stop-opacity="0.7"/><stop offset="1" stop-color="#c00"/></linearGradient></defs><title>Ilustraciones_servicios</title><g class="b5f93f5e-929d-461e-93de-6bf107b7cbb2"><g id="a620cd15-4ef5-4f18-89c3-3f8cacb38f09" data-name="Capa 1"><rect class="e4728cfb-6a5d-4918-8afe-4b0ee2ebe943" x="-5" y="-2.49" width="1030" height="616.99"/><polygon class="f2996db2-87a6-4cbf-8935-6f63137153a6" points="-4.5 -3 -4.5 186.85 545.34 124.38 545.34 -3 -4.5 -3"/><rect class="aa784806-e7d2-4fe0-939f-8757e6e40b36" x="545.34" y="-2.49" width="479.66" height="616.99"/><path class="e2c2f6cf-9890-43b9-be9b-4198f67db916" d="M797.29,276c0-125.76-101.95-227.71-227.71-227.71S341.87,150.2,341.87,276,443.82,503.67,569.58,503.67V429.45A153.5,153.5,0,1,1,678,384.62l52.49,52.48A227,227,0,0,0,797.29,276Z"/><text class="a4e6047c-c52c-42eb-a195-f1e153b6b126" transform="translate(598.36 96.69)">000023493201<tspan x="0" y="63.39">453666638888</tspan><tspan class="e02fa56e-236a-4208-8696-20f17cd54662"><tspan x="0" y="126.78">000000001000</tspan><tspan x="0" y="190.17">345644444000</tspan></tspan><tspan x="0" y="253.56">029938882222</tspan><tspan x="0" y="316.94">999999990000</tspan><tspan x="0" y="380.33">032337277277</tspan><tspan x="0" y="443.72">010101010100</tspan></text><rect class="f2996db2-87a6-4cbf-8935-6f63137153a6" x="93.96" y="455.96" width="185.8" height="158.54"/><polygon class="ba209fec-e04a-476c-88b0-de359a95d3cf" points="176.76 455.96 362.57 455.96 443.35 320.64 257.55 320.64 176.76 455.96"/><polygon class="a322a6f5-ca74-41db-b611-94f18d981d46" points="797.29 -3 -4.5 -3 -4.5 290.66 94.47 455.45 363.07 455.45 797.29 -3"/><rect class="aa784806-e7d2-4fe0-939f-8757e6e40b36" x="279.76" y="455.96" width="82.8" height="158.54"/><path class="e9e2460e-12b1-4296-b823-d4e7113fdae7" d="M394,430.71H569.58a0,0,0,0,1,0,0V614.5a0,0,0,0,1,0,0H321.17a0,0,0,0,1,0,0V503.55A72.84,72.84,0,0,1,394,430.71Z"/><path class="e02fa56e-236a-4208-8696-20f17cd54662" d="M709.94,316.35l-18.18,17.42s17.72,39.94-3.48,61.14l30.1,30.1s32.12-25.6,42.13-78.62l-27.34-33.82Z"/><path class="e02fa56e-236a-4208-8696-20f17cd54662" d="M462.59,214.62h.91a46.5,46.5,0,0,1,46.5,46.5v169.6a0,0,0,0,1,0,0H416.09a0,0,0,0,1,0,0V261.12A46.5,46.5,0,0,1,462.59,214.62Z"/><polygon class="e02fa56e-236a-4208-8696-20f17cd54662" points="501.92 331.75 545.34 331.75 510 279.06 501.92 331.75"/><path class="e9e2460e-12b1-4296-b823-d4e7113fdae7" d="M569.58,429.45v74.22A227,227,0,0,0,730.47,437.1L678,384.62A153,153,0,0,1,569.58,429.45Z"/><polygon class="e9e2460e-12b1-4296-b823-d4e7113fdae7" points="279.76 455.96 93.96 455.96 13.18 320.64 198.98 320.64 279.76 455.96"/><rect class="e9e2460e-12b1-4296-b823-d4e7113fdae7" x="709.94" y="296.41" width="26.25" height="64.63"/><circle class="f2996db2-87a6-4cbf-8935-6f63137153a6" cx="723.32" cy="242.38" r="55.54"/><circle class="e02fa56e-236a-4208-8696-20f17cd54662" cx="723.32" cy="242.38" r="41.91"/></g></g></svg>