<svg xmlns="http://www.w3.org/2000/svg" xmlns:xlink="http://www.w3.org/1999/xlink" viewBox="0 0 1020 611"><defs><style>.a2e7ef5f-04fd-493b-8d68-aa159524e035{isolation:isolate;}.f1c185dc-b92b-4656-9384-6d3bfb6bd89d{fill:red;}.f7ab484a-d029-4ae5-819e-2db6a82dfe4b{mix-blend-mode:hard-light;fill:url(#e708af74-74be-4b1a-b0db-e1499d599f54);}.a0df713b-1d7b-48f3-b93b-0f98395baff7{fill:url(#ec761f3f-6307-410f-adf9-059bc316502c);}.b1872d8b-84af-46c0-b378-40955189411d{fill:#f33;}.ee24ea5b-88d8-4a8a-8d08-f420099cd20a{fill:#600;}.add46a1f-440c-4654-a21a-46f5aaed8465{fill:#f99;}.a34e1f64-7f76-4bd3-afaf-54518874c2c6{fill:#c00;}.a5ec345f-69be-40cb-aa48-dc50aba05261{fill:#633;}.a9c77aa0-3488-4f96-9dfb-14d1bdc28fdc,.ae9ef442-3737-4619-8442-dc1f53188f7a{fill:none;stroke-miterlimit:10;}.a9c77aa0-3488-4f96-9dfb-14d1bdc28fdc{stroke:#600;stroke-width:16px;}.ae9ef442-3737-4619-8442-dc1f53188f7a{stroke:#c33;stroke-width:25px;}</style><linearGradient id="e708af74-74be-4b1a-b0db-e1499d599f54" x1="510" y1="305.5" x2="1025.01" y2="305.5" gradientUnits="userSpaceOnUse"><stop offset="0" stop-color="#240006" stop-opacity="0.7"/><stop offset="1" stop-color="#c00"/></linearGradient><linearGradient id="ec761f3f-6307-410f-adf9-059bc316502c" x1="-5.01" y1="154.28" x2="386.8" y2="154.28" gradientUnits="userSpaceOnUse"><stop offset="0" stop-color="red" stop-opacity="0"/><stop offset="0.19" stop-color="#ff0202" stop-opacity="0.01"/><stop offset="0.32" stop-color="#ff0707" stop-opacity="0.05"/><stop offset="0.44" stop-color="#f11" stop-opacity="0.11"/><stop offset="0.54" stop-color="#ff1e1e" stop-opacity="0.2"/><stop offset="0.64" stop-color="#ff2f2f" stop-opacity="0.31"/><stop offset="0.74" stop-color="#ff4545" stop-opacity="0.45"/><stop offset="0.83" stop-color="#ff5e5e" stop-opacity="0.61"/><stop offset="0.92" stop-color="#ff7a7a" stop-opacity="0.8"/><stop offset="1" stop-color="#f99"/></linearGradient></defs><title>Ilustraciones_servicios</title><g class="a2e7ef5f-04fd-493b-8d68-aa159524e035"><g id="b9412330-b457-429b-8c3d-9e8e8b1d2ad7" data-name="Capa 1"><rect class="f1c185dc-b92b-4656-9384-6d3bfb6bd89d" x="-5.01" y="-3" width="1030.02" height="617"/><rect class="f7ab484a-d029-4ae5-819e-2db6a82dfe4b" x="510" y="-3" width="515.01" height="617"/><polygon class="a0df713b-1d7b-48f3-b93b-0f98395baff7" points="386.8 129.29 376.7 270.66 348.93 311.56 217.15 311.56 217.15 107.07 -5.01 35.68 -5.01 -3 386.8 129.29"/><circle class="b1872d8b-84af-46c0-b378-40955189411d" cx="853.34" cy="197.95" r="93.91"/><polygon class="ee24ea5b-88d8-4a8a-8d08-f420099cd20a" points="919.73 288.43 1025.01 375.68 1025.01 307.01 954.07 247.51 919.73 288.43"/><polygon class="add46a1f-440c-4654-a21a-46f5aaed8465" points="226.78 178.39 253.97 178.39 231.84 145.39 226.78 178.39"/><path class="a34e1f64-7f76-4bd3-afaf-54518874c2c6" d="M172.72,240.37c0,28.27-78.77,26.25-78.77,155.51h100V548.36h101L252,505.44V370.63H194.43s-17.17-34.84-6.06-57.05,43.42-49.48,43.42-73.72S172.72,240.37,172.72,240.37Z"/><polygon class="ee24ea5b-88d8-4a8a-8d08-f420099cd20a" points="173.22 370.13 254.01 370.13 336.31 452.43 390.34 452.43 324.95 517.82 173.22 370.13"/><path class="b1872d8b-84af-46c0-b378-40955189411d" d="M172.72,240.37H150.5s1,71.69,71.7,71.69H302V279.75H243.91c-25.24,0-37.6-39.38-37.6-39.38Z"/><polygon class="add46a1f-440c-4654-a21a-46f5aaed8465" points="348.93 311.56 302.48 311.56 302.48 279.25 348.93 311.56"/><polygon class="add46a1f-440c-4654-a21a-46f5aaed8465" points="342.88 286.31 318.51 310.68 303.87 296.04 342.88 286.31"/><rect class="a34e1f64-7f76-4bd3-afaf-54518874c2c6" x="219.68" y="311.56" width="290.32" height="44.43"/><polygon class="ee24ea5b-88d8-4a8a-8d08-f420099cd20a" points="376.2 271.17 396.39 271.17 401.44 199.97 405.99 129.29 386.8 129.29 376.2 271.17"/><path class="a34e1f64-7f76-4bd3-afaf-54518874c2c6" d="M386,311.69v-9.22h37.7V239.86c0-25.24-23.34-23.34-23.34-23.34l1.12-17.05s33.33,0,33.33,40.39v71.83Z"/><path class="a5ec345f-69be-40cb-aa48-dc50aba05261" d="M94.46,395.37V271.17c0-56.55-27.27-84.83-27.27-84.83L50,207.55s22.21,22.21,22.21,71.69V547.86H94.46V415.57h99.47V395.88Z"/><polyline class="a9c77aa0-3488-4f96-9dfb-14d1bdc28fdc" points="413.23 355.99 413.23 428.7 628.65 428.7 628.65 169.17 749.83 169.17"/><polyline class="a9c77aa0-3488-4f96-9dfb-14d1bdc28fdc" points="849.8 463.03 849.8 421.63 790.23 421.63 790.23 463.03"/><polyline class="a9c77aa0-3488-4f96-9dfb-14d1bdc28fdc" points="790.23 442.84 665.01 442.84 665.01 394.36 879.09 394.36 879.09 483.23 628.65 483.23 628.65 428.7"/><polyline class="a9c77aa0-3488-4f96-9dfb-14d1bdc28fdc" points="756.9 326.71 664 326.71 664 270.16 715.5 270.16 715.5 298.43 790.23 298.43 790.23 354.98 628.65 354.98"/><polyline class="a9c77aa0-3488-4f96-9dfb-14d1bdc28fdc" points="746.8 206.54 664 206.54 664 241.88"/><path class="add46a1f-440c-4654-a21a-46f5aaed8465" d="M198.23,105h8.39a25.21,25.21,0,0,1,25.21,25.21V240.37a0,0,0,0,1,0,0H173a0,0,0,0,1,0,0V130.24A25.21,25.21,0,0,1,198.23,105Z"/><polyline class="ae9ef442-3737-4619-8442-dc1f53188f7a" points="774.57 143.42 853.34 143.42 853.34 298.94"/><rect class="a34e1f64-7f76-4bd3-afaf-54518874c2c6" x="820.37" y="186.75" width="66.65" height="22.22" transform="translate(389.95 -545.7) rotate(45)"/><rect class="a34e1f64-7f76-4bd3-afaf-54518874c2c6" x="820.37" y="186.75" width="66.65" height="22.22" transform="translate(1597.25 -265.88) rotate(135)"/><line class="a9c77aa0-3488-4f96-9dfb-14d1bdc28fdc" x1="878.58" y1="394.87" x2="878.58" y2="298.94"/><line class="a9c77aa0-3488-4f96-9dfb-14d1bdc28fdc" x1="820.01" y1="355.49" x2="878.58" y2="355.49"/><line class="a9c77aa0-3488-4f96-9dfb-14d1bdc28fdc" x1="714.99" y1="270.66" x2="714.99" y2="228.25"/><path class="ee24ea5b-88d8-4a8a-8d08-f420099cd20a" d="M926.82,111.74A113,113,0,1,0,940.75,271,113,113,0,0,0,926.82,111.74ZM919.5,253.13A85.27,85.27,0,1,1,909,133,85.27,85.27,0,0,1,919.5,253.13Z"/><path class="add46a1f-440c-4654-a21a-46f5aaed8465" d="M998.26,273.15l-35.45,37-7.7,47.26L1024,413.05l1.06-.21V282A182.47,182.47,0,0,1,998.26,273.15Z"/><rect class="a34e1f64-7f76-4bd3-afaf-54518874c2c6" x="-5.01" y="548.36" width="515.01" height="65.64"/></g></g></svg>