<svg xmlns="http://www.w3.org/2000/svg" xmlns:xlink="http://www.w3.org/1999/xlink" width="200" height="200" viewBox="0 0 200 200">
  <defs>
    <style>
      .cls-1 {
        clip-path: url(#clip-ic_05_200x);
      }

      .cls-2, .cls-4, .cls-6 {
        fill: none;
      }

      .cls-3 {
        fill: #4f729e;
      }

      .cls-4 {
        stroke: #4f729e;
        stroke-linecap: round;
        stroke-linejoin: round;
        stroke-width: 2px;
      }

      .cls-5 {
        mix-blend-mode: multiply;
        isolation: isolate;
        fill: url(#linear-gradient);
      }

      .cls-6 {
        stroke: #fff;
        stroke-width: 3px;
      }

      .cls-7 {
        fill: #fff;
      }
    </style>
    <linearGradient id="linear-gradient" x1="1" x2="0.5" y2="1" gradientUnits="objectBoundingBox">
      <stop offset="0" stop-color="#4f729e"/>
      <stop offset="0.419" stop-color="#a4b6cd"/>
      <stop offset="1" stop-color="#fff"/>
    </linearGradient>
    <clipPath id="clip-ic_05_200x">
      <rect width="200" height="200"/>
    </clipPath>
  </defs>
  <g id="ic_05_200x" class="cls-1">
    <g id="Grupo_136" data-name="Grupo 136" transform="translate(-2090 -134)">
      <rect id="Rectángulo_12" data-name="Rectángulo 12" class="cls-2" width="120" height="120" transform="translate(2130 174)"/>
      <path id="Trazado_12" data-name="Trazado 12" class="cls-3" d="M5379.794,774.28,5328,826.07s-3.852-29.748,9.1-42.7S5379.794,774.28,5379.794,774.28Z" transform="translate(-3129.794 -531.794)"/>
      <g id="Grupo_74" data-name="Grupo 74" transform="translate(-119 -405)">
        <path id="Trazado_13" data-name="Trazado 13" class="cls-4" d="M5327.468,803.066h-47.32V763.084" transform="translate(-3016 -104.791)"/>
        <path id="Trazado_14" data-name="Trazado 14" class="cls-4" d="M5280.149,763.084h38.016v37.981" transform="translate(-2948.695 -158.111)"/>
      </g>
      <path id="Unión_5" data-name="Unión 5" class="cls-5" d="M34.51,71.775l-5.878,6.169-2.084-8.358-7.232,4.4.094-8.627-8.1,2.326,2.267-8.306-8.4.1,4.284-7.423-8.145-2.14,6.011-6.031L0,39.647l7.327-4.229-6.01-6.032,8.145-2.139L5.177,19.824l8.4.1-2.267-8.308,8.1,2.326-.094-8.625,7.232,4.4,2.084-8.358L34.509,7.52,38.63,0l4.122,7.521L48.63,1.351l2.084,8.358,7.232-4.4-.094,8.626,8.093-2.326L63.68,19.921l8.406-.1L67.8,27.246l8.143,2.139-6.009,6.031,7.326,4.23-7.326,4.23,6.01,6.032L67.8,52.048l4.285,7.423-8.406-.1,2.266,8.307-8.094-2.326.095,8.627-7.233-4.4-2.084,8.358-5.877-6.168L38.63,79.294ZM40.256,52.3l3.134-.862L46.2,49.773l2.3-2.357,1.623-2.886.84-3.217v-3.33l-.839-3.216L48.5,31.88l-2.3-2.359-2.811-1.665-3.134-.862H37.008l-3.135.862-2.815,1.668-2.291,2.351-1.624,2.886L26.3,37.986v3.331l.839,3.214,1.624,2.887,2.295,2.354,2.812,1.666L37,52.3Z" transform="translate(2130.5 174)"/>
      <circle id="Elipse_8" data-name="Elipse 8" class="cls-3" cx="25.5" cy="25.5" r="25.5" transform="translate(2144 188)"/>
      <rect id="Rectángulo_14" data-name="Rectángulo 14" class="cls-6" width="9" height="19" rx="4.5" transform="translate(2165 201)"/>
      <rect id="Rectángulo_13" data-name="Rectángulo 13" class="cls-7" width="19" height="17" rx="5" transform="translate(2160 209)"/>
      <path id="Unión_1" data-name="Unión 1" class="cls-3" d="M2,9V6A3.146,3.146,0,0,1,0,3.15,3.339,3.339,0,0,1,3.5,0,3.339,3.339,0,0,1,7,3.15,3.146,3.146,0,0,1,5,6V9Z" transform="translate(2166 213)"/>
    </g>
  </g>
</svg>
