<svg xmlns="http://www.w3.org/2000/svg" xmlns:xlink="http://www.w3.org/1999/xlink" viewBox="0 0 1020.31 611.16"><defs><style>.bf2547c9-26dd-48a5-acb3-4d852d9600bd{isolation:isolate;}.f8caefbe-d630-4e8d-9341-6bec6f76d7d6{fill:red;}.bfb3064b-7f5b-4c17-a170-349787caad8a,.eadfdd03-13ad-42e2-a5fa-276f79895d97{fill:#c33;}.e1456265-39aa-4540-b281-b5e49abab5b3{fill:#c00;}.b7e252c5-1c0e-4cf8-b206-32ae2ffe80cc,.be52c034-8154-4c36-a61c-e35fe3870081{fill:#933;}.a93b9607-8059-4e1b-bd4b-081f3b4d600f,.e0af8df3-9a85-4edc-a0a5-a15a81cbca8e{opacity:0.5;mix-blend-mode:hard-light;}.e0af8df3-9a85-4edc-a0a5-a15a81cbca8e{fill:url(#b2da1b39-8383-467e-8175-126ab22f4edb);}.e1096df2-69e5-4a72-aed8-6ca23428ae6d{fill:#600;}.a93b9607-8059-4e1b-bd4b-081f3b4d600f{fill:url(#aeaa7bb0-e4f0-4a3f-bc7c-77993c378b55);}.fb2c70ab-30eb-463f-aff5-e44bd074687d{fill:#f99;}.be52c034-8154-4c36-a61c-e35fe3870081,.eadfdd03-13ad-42e2-a5fa-276f79895d97{fill-rule:evenodd;}.a6fe77db-2900-4018-a822-f631f45f0309{fill:#300;}.ba0f3c38-9c09-4514-a054-98389ea602d8{fill:none;}.e72b978a-314f-4ee9-9bc2-dda13203c8ad{fill:#c66;}</style><linearGradient id="b2da1b39-8383-467e-8175-126ab22f4edb" x1="238.68" y1="265.61" x2="512.43" y2="265.61" gradientUnits="userSpaceOnUse"><stop offset="0" stop-color="#240006" stop-opacity="0.7"/><stop offset="1" stop-color="#c00"/></linearGradient><linearGradient id="aeaa7bb0-e4f0-4a3f-bc7c-77993c378b55" x1="308.1" y1="265.61" x2="443" y2="265.61" xlink:href="#b2da1b39-8383-467e-8175-126ab22f4edb"/></defs><title>Ilustraciones_servicios</title><g class="bf2547c9-26dd-48a5-acb3-4d852d9600bd"><g id="a1369411-c430-4fea-8d9c-805ae5ff7ba9" data-name="Capa 1"><rect class="f8caefbe-d630-4e8d-9341-6bec6f76d7d6" x="-4.69" y="-2.84" width="1030.01" height="617"/><path class="bfb3064b-7f5b-4c17-a170-349787caad8a" d="M88.21,154.53A186,186,0,0,0,124.08,264.6c2.08-2.84,4.22-5.62,6.45-8.33A176.77,176.77,0,0,1,194.87-3h-20.3A186.67,186.67,0,0,0,88.21,154.53Z"/><path class="bfb3064b-7f5b-4c17-a170-349787caad8a" d="M375.49-3h-20.3a176.77,176.77,0,0,1,64.34,259.27q3.35,4.07,6.44,8.33A186.85,186.85,0,0,0,375.49-3Z"/><polygon class="e1456265-39aa-4540-b281-b5e49abab5b3" points="618.37 -3 618.37 195.93 1025.32 614 1025.32 -3 618.37 -3"/><path class="e1456265-39aa-4540-b281-b5e49abab5b3" d="M419.53,272.93a176.72,176.72,0,1,1-289,0c-2.23-2.71-4.37-5.49-6.45-8.33A186,186,0,0,0,88.21,374.67c0,103.18,83.64,186.82,186.82,186.82s186.81-83.64,186.81-186.82A186,186,0,0,0,426,264.6Q422.86,268.86,419.53,272.93Z"/><path class="b7e252c5-1c0e-4cf8-b206-32ae2ffe80cc" d="M449.11,102.53H787.63A61.48,61.48,0,0,1,849.11,164V613.49a0,0,0,0,1,0,0H387.62a0,0,0,0,1,0,0V164a61.48,61.48,0,0,1,61.48-61.48Z"/><path class="e0af8df3-9a85-4edc-a0a5-a15a81cbca8e" d="M512.43,346.26a56.22,56.22,0,0,1-56.23,56.22H294.91a56.22,56.22,0,0,1-56.23-56.22V185a56.22,56.22,0,0,1,56.23-56.23H456.2A56.22,56.22,0,0,1,512.43,185Z"/><path class="e1096df2-69e5-4a72-aed8-6ca23428ae6d" d="M429.74,160.09H807A20.91,20.91,0,0,1,827.9,181v432.5a0,0,0,0,1,0,0H408.83a0,0,0,0,1,0,0V181A20.91,20.91,0,0,1,429.74,160.09Z"/><path class="a93b9607-8059-4e1b-bd4b-081f3b4d600f" d="M443,305.35a27.71,27.71,0,0,1-27.7,27.71H335.82a27.72,27.72,0,0,1-27.72-27.71V225.87a27.71,27.71,0,0,1,27.72-27.71H415.3A27.7,27.7,0,0,1,443,225.87Z"/><path class="fb2c70ab-30eb-463f-aff5-e44bd074687d" d="M665.16,292.89A19.18,19.18,0,0,1,646,312.07H591a19.18,19.18,0,0,1-19.18-19.18v-55A19.18,19.18,0,0,1,591,218.72h55a19.18,19.18,0,0,1,19.17,19.18Z"/><path class="b7e252c5-1c0e-4cf8-b206-32ae2ffe80cc" d="M632,230.19H605a21.69,21.69,0,0,0-21.69,21.7v27A21.69,21.69,0,0,0,605,300.59h27a21.69,21.69,0,0,0,21.69-21.69v-27A21.69,21.69,0,0,0,632,230.19Zm14.93,46.12a17.53,17.53,0,0,1-17.53,17.53H607.57A17.53,17.53,0,0,1,590,276.31V254.48A17.53,17.53,0,0,1,607.57,237H629.4a17.53,17.53,0,0,1,17.53,17.53Z"/><path class="b7e252c5-1c0e-4cf8-b206-32ae2ffe80cc" d="M619.43,247A18.55,18.55,0,1,0,638,265.51,18.55,18.55,0,0,0,619.43,247Zm0,29.7a11.16,11.16,0,1,1,11.16-11.16A11.16,11.16,0,0,1,619.43,276.67Z"/><path class="b7e252c5-1c0e-4cf8-b206-32ae2ffe80cc" d="M641.41,246.68a4.72,4.72,0,1,1-4.72-4.72A4.72,4.72,0,0,1,641.41,246.68Z"/><path class="bfb3064b-7f5b-4c17-a170-349787caad8a" d="M702.49,218.72h55a19.18,19.18,0,0,1,19.18,19.18v55a19.17,19.17,0,0,1-19.17,19.17h-55a19.17,19.17,0,0,1-19.17-19.17v-55A19.17,19.17,0,0,1,702.49,218.72Z"/><path class="fb2c70ab-30eb-463f-aff5-e44bd074687d" d="M765.07,273.86c0,8.84-3,16-11.86,16H707.72c-8.84,0-12.81-7.17-12.81-16V256.93c0-8.84,3.59-16,12.44-16h46.23c8.84,0,11.49,7.17,11.49,16Z"/><polygon class="bfb3064b-7f5b-4c17-a170-349787caad8a" points="722.96 255.83 742.07 265.8 722.96 275.77 722.96 255.83"/><polygon class="bfb3064b-7f5b-4c17-a170-349787caad8a" points="722.96 255.98 739.58 267.1 742.07 265.8 724.44 256.6 722.96 255.96 722.96 255.98"/><path class="fb2c70ab-30eb-463f-aff5-e44bd074687d" d="M553.65,400.44a19.17,19.17,0,0,1-19.17,19.17h-55a19.17,19.17,0,0,1-19.17-19.17v-55a19.18,19.18,0,0,1,19.17-19.18h55a19.18,19.18,0,0,1,19.17,19.18Z"/><path class="be52c034-8154-4c36-a61c-e35fe3870081" d="M538.33,372.94A31.35,31.35,0,1,1,507,341.59,31.35,31.35,0,0,1,538.33,372.94Z"/><g id="eacc4912-72ac-4636-9d29-5f2be990e730" data-name="UG8QpP"><path class="eadfdd03-13ad-42e2-a5fa-276f79895d97" d="M503.49,387.6a10.34,10.34,0,0,0,10.68,2.93,23.59,23.59,0,0,0,2.31-.84,14.27,14.27,0,0,0,4-2.54,19.86,19.86,0,0,0,6-11.33,17.85,17.85,0,0,0-12.1-21.39,22.32,22.32,0,0,0-14.06-.3,21.08,21.08,0,0,0-3.8,1.67,18.62,18.62,0,0,0-8.85,11,22.39,22.39,0,0,0-.69,3.88,16.54,16.54,0,0,0,1.82,9.08c.23.44.51.85.73,1.3a7.87,7.87,0,0,0,2.21,2.84,2.31,2.31,0,0,0,1.54.59c.79-.05,1-.81,1.2-1.46a21.61,21.61,0,0,0,.48-2.23,1.81,1.81,0,0,0-.26-1.68c-3.33-4.73-2.18-12.38,1.92-16.22a14.5,14.5,0,0,1,12.66-3.81,12.29,12.29,0,0,1,9.61,7.32,16.51,16.51,0,0,1,.92,5.56,17.14,17.14,0,0,1-1.33,7.05,12.45,12.45,0,0,1-3.8,5.23c-2.55,1.93-7.92,2.76-9-1.25a7.68,7.68,0,0,1-.1-3.27c.5-2.52,1.47-4.92,2.05-7.41a8.22,8.22,0,0,0,.15-4,3.55,3.55,0,0,0-3.09-2.87,4.6,4.6,0,0,0-4.46,1.69,10.16,10.16,0,0,0-1.36,9.54,3.79,3.79,0,0,1,.12,2.11c-1,4.1-1.9,8.24-2.95,12.33a28.64,28.64,0,0,0-.83,8.5,13.32,13.32,0,0,0,.24,2.37c.12.53.31,1.27.82,1.54.71.38,1.31-.52,1.64-1a27.47,27.47,0,0,0,3.12-6.31c.5-1.43.89-2.9,1.28-4.37C502.5,391.32,503.25,388.65,503.49,387.6Z"/></g><path class="e1456265-39aa-4540-b281-b5e49abab5b3" d="M591,326.26h55a19.18,19.18,0,0,1,19.18,19.18v55A19.17,19.17,0,0,1,646,419.61H591a19.17,19.17,0,0,1-19.17-19.17v-55A19.17,19.17,0,0,1,591,326.26Z"/><path class="a6fe77db-2900-4018-a822-f631f45f0309" d="M479.48,219.22h55a19.18,19.18,0,0,1,19.18,19.18v55a19.17,19.17,0,0,1-19.17,19.17h-55a19.17,19.17,0,0,1-19.17-19.17v-55A19.17,19.17,0,0,1,479.48,219.22Z"/><path class="fb2c70ab-30eb-463f-aff5-e44bd074687d" d="M643.58,351.92h8.62V338.39H639.29A17.51,17.51,0,0,0,626,344.91s-3.52,3.32-3.57,13h0v10.15H609.67v14.37h12.76v37.13h14.71V382.48h12.65l1.77-14.37H637.14V358h0C637.17,356.82,637.67,351.82,643.58,351.92Z"/><path class="fb2c70ab-30eb-463f-aff5-e44bd074687d" d="M776.67,400.44a19.18,19.18,0,0,1-19.18,19.17h-55a19.17,19.17,0,0,1-19.17-19.17v-55a19.18,19.18,0,0,1,19.17-19.18h55a19.18,19.18,0,0,1,19.18,19.18Z"/><path class="bfb3064b-7f5b-4c17-a170-349787caad8a" d="M713.6,352.18c.11-.26.24-.51.37-.77a17.13,17.13,0,0,1,3-4.3,15.88,15.88,0,0,1,3.53-2.73,16.8,16.8,0,0,1,3.54-1.52,19.21,19.21,0,0,1,3.1-.66,23.87,23.87,0,0,1,3.05-.15,21.87,21.87,0,0,1,3,.19,18.29,18.29,0,0,1,3.19.76,16.72,16.72,0,0,1,3.59,1.67,15.58,15.58,0,0,1,3.49,2.94,18.32,18.32,0,0,1,2.91,4.56c1.38,3.11,1,8.74.74,13.26,0,.71-.09,1.41-.13,2.07v.29l.19.21a3.4,3.4,0,0,0,2.4.9h0a7,7,0,0,0,2.06-.39,17.22,17.22,0,0,1,1.82-.66,2.88,2.88,0,0,1,2.3.69c.44.51,0,1.17-.45,1.49a7.54,7.54,0,0,1-1.93,1.05l-.91.31c-1.57.49-3.94,1.24-4.73,3.12a4.38,4.38,0,0,0,.36,3.71c.29.66,4.76,10.74,14.82,12.39a.34.34,0,0,1,0,.16c-.17.41-1.26,1.79-8,2.83-1.06.17-1.32,1.35-1.61,2.72-.11.5-.22,1-.38,1.51,0,.15-.05.16-.21.16h-.08a7.47,7.47,0,0,1-1.28-.16,19.55,19.55,0,0,0-4-.42,17.52,17.52,0,0,0-2.86.24,13.89,13.89,0,0,0-5.52,2.79,28.39,28.39,0,0,1-3.38,2.15,11.48,11.48,0,0,1-4.17,1.23c-.32,0-.65,0-1,.06a12.76,12.76,0,0,1-4.56-.6,15.64,15.64,0,0,1-3.63-1.88q-.71-.47-1.38-1a13.86,13.86,0,0,0-5.53-2.79,17.43,17.43,0,0,0-2.86-.24,20,20,0,0,0-3.94.44,8.48,8.48,0,0,1-1.28.2c-.24,0-.25,0-.3-.2-.15-.51-.26-1-.37-1.51-.3-1.38-.56-2.57-1.61-2.73-6.75-1-7.84-2.43-8-2.83a1.36,1.36,0,0,1,0-.17c10.07-1.65,14.54-11.72,14.82-12.39a4.38,4.38,0,0,0,.37-3.71c-.8-1.88-3.16-2.63-4.73-3.12l-.91-.31c-.92-.37-3.77-1.7-1.92-2.84a2.27,2.27,0,0,1,1.31-.37,4.68,4.68,0,0,1,1.4.45,8.2,8.2,0,0,0,2.85.59,3.5,3.5,0,0,0,2.61-.91l.18-.21v-.29c0-.66-.08-1.36-.12-2.07C712.57,360.91,712.22,355.29,713.6,352.18Zm7.78-10.06a17.78,17.78,0,0,0-5,3.34,18.88,18.88,0,0,0-4.22,6.06c-1.54,3.47-1.18,9.31-.89,14h0c0,.5.06,1,.09,1.54a2.61,2.61,0,0,1-1.13.21,6.62,6.62,0,0,1-2.36-.51,5.88,5.88,0,0,0-2-.54,3.78,3.78,0,0,0-2,.56,2.93,2.93,0,0,0-1.47,1.89,2.63,2.63,0,0,0,1,2.43,8.47,8.47,0,0,0,2.58,1.48c.29.11.64.22,1,.34,1.28.41,3.22,1,3.73,2.21a2.89,2.89,0,0,1-.34,2.36s0,.05,0,.08a21,21,0,0,1-2.27,3.86,20.4,20.4,0,0,1-4.89,4.92A15.9,15.9,0,0,1,700,388.1a30.64,30.64,0,0,1-3.12.86,1.73,1.73,0,0,0-1.48,1.74,2.1,2.1,0,0,0,.17.72,4.33,4.33,0,0,0,2.34,2,26.89,26.89,0,0,0,6.76,1.76,8.83,8.83,0,0,1,.42,1.49c.11.53.22,1.06.39,1.63a1.78,1.78,0,0,0,1.86,1.36,9.82,9.82,0,0,0,1.59-.22,17.49,17.49,0,0,1,3.63-.42,15.59,15.59,0,0,1,2.6.23,12.38,12.38,0,0,1,4.85,2.5l.43.31a27.12,27.12,0,0,0,3.25,2,13.47,13.47,0,0,0,4,1.28,17,17,0,0,0,2.46.12,15.11,15.11,0,0,0,2.69-.23,13.71,13.71,0,0,0,3.92-1.45,18.84,18.84,0,0,0,1.66-1,16.88,16.88,0,0,0,1.51-1h0c1.69-1.19,3.15-2.22,4.85-2.5a15.38,15.38,0,0,1,2.59-.23,18,18,0,0,1,3.63.39,9,9,0,0,0,1.6.2h.08a1.76,1.76,0,0,0,1.77-1.34c.17-.56.29-1.08.4-1.61a7.67,7.67,0,0,1,.42-1.49,26.46,26.46,0,0,0,6.76-1.76,4.35,4.35,0,0,0,2.34-2,2.36,2.36,0,0,0,.17-.72,1.62,1.62,0,0,0-1.35-1.68c-9.25-1.53-13.42-11-13.6-11.44l0-.08a2.84,2.84,0,0,1-.33-2.36c.51-1.18,2.44-1.8,3.73-2.21.37-.12.72-.23,1-.34a7.78,7.78,0,0,0,2.76-1.66,2.61,2.61,0,0,0,.84-1.89c0-1.8-1.81-2.78-3.38-2.82a6.6,6.6,0,0,0-2.41.53,7.13,7.13,0,0,1-2.22.53,2.64,2.64,0,0,1-1-.21c0-.43.06-.88.09-1.34v-.2c.29-4.7.66-10.54-.89-14a18.62,18.62,0,0,0-4.23-6.08,17.56,17.56,0,0,0-5.06-3.35,20.11,20.11,0,0,0-6.09-1.57c-.8-.08-1.63-.14-2.43-.14a23.26,23.26,0,0,0-5.31.61A19.24,19.24,0,0,0,721.38,342.12Z"/><path class="bfb3064b-7f5b-4c17-a170-349787caad8a" d="M754.93,393.6c6.74-1,7.83-2.42,8-2.83a.34.34,0,0,0,0-.16c-10.06-1.65-14.53-11.73-14.82-12.39a4.38,4.38,0,0,1-.36-3.71c.79-1.88,3.16-2.63,4.73-3.12l.91-.31a7.54,7.54,0,0,0,1.93-1.05c.41-.32.89-1,.45-1.49a2.88,2.88,0,0,0-2.3-.69,17.22,17.22,0,0,0-1.82.66,7,7,0,0,1-2.06.39h0a3.4,3.4,0,0,1-2.4-.9l-.19-.21v-.29c0-.66.08-1.36.13-2.07.28-4.52.64-10.15-.74-13.26a18.32,18.32,0,0,0-2.91-4.56,15.58,15.58,0,0,0-3.49-2.94A16.72,16.72,0,0,0,736.4,343a18.29,18.29,0,0,0-3.19-.76,21.87,21.87,0,0,0-3-.19,23.87,23.87,0,0,0-3.05.15,19.21,19.21,0,0,0-3.1.66,16.8,16.8,0,0,0-3.54,1.52,15.88,15.88,0,0,0-3.53,2.73,17.13,17.13,0,0,0-3,4.3c-.13.26-.26.51-.37.77-1.38,3.11-1,8.73-.74,13.25,0,.71.08,1.41.12,2.07v.29l-.18.21a3.5,3.5,0,0,1-2.61.91,8.2,8.2,0,0,1-2.85-.59,4.68,4.68,0,0,0-1.4-.45,2.27,2.27,0,0,0-1.31.37c-1.85,1.14,1,2.47,1.92,2.84l.91.31c1.57.49,3.93,1.24,4.73,3.12a4.38,4.38,0,0,1-.37,3.71c-.28.67-4.75,10.74-14.82,12.39a1.36,1.36,0,0,0,0,.17c.17.4,1.26,1.79,8,2.83,1.05.16,1.31,1.35,1.61,2.73.11.49.22,1,.37,1.51.05.18.06.2.3.2a8.48,8.48,0,0,0,1.28-.2,20,20,0,0,1,3.94-.44,17.43,17.43,0,0,1,2.86.24,13.86,13.86,0,0,1,5.53,2.79q.67.49,1.38,1a15.64,15.64,0,0,0,3.63,1.88,12.76,12.76,0,0,0,4.56.6c.32,0,.65,0,1-.06a11.48,11.48,0,0,0,4.17-1.23,28.39,28.39,0,0,0,3.38-2.15,13.89,13.89,0,0,1,5.52-2.79,17.52,17.52,0,0,1,2.86-.24,19.55,19.55,0,0,1,4,.42,7.47,7.47,0,0,0,1.28.16h.08c.16,0,.17,0,.21-.16.16-.52.27-1,.38-1.51C753.61,395,753.87,393.77,754.93,393.6Z"/><path class="fb2c70ab-30eb-463f-aff5-e44bd074687d" d="M479.48,433.81h55A19.18,19.18,0,0,1,553.65,453v55a19.17,19.17,0,0,1-19.17,19.17h-55A19.17,19.17,0,0,1,460.31,508V453A19.18,19.18,0,0,1,479.48,433.81Z"/><path class="e1456265-39aa-4540-b281-b5e49abab5b3" d="M540.66,480.48A33.68,33.68,0,1,1,507,446.8,33.68,33.68,0,0,1,540.66,480.48Z"/><path class="ba0f3c38-9c09-4514-a054-98389ea602d8" d="M540.66,480.48A33.68,33.68,0,1,1,507,446.8,33.68,33.68,0,0,1,540.66,480.48Z"/><path class="bfb3064b-7f5b-4c17-a170-349787caad8a" d="M591,433.81h55A19.18,19.18,0,0,1,665.16,453v55A19.18,19.18,0,0,1,646,527.15H591A19.17,19.17,0,0,1,571.81,508V453A19.17,19.17,0,0,1,591,433.81Z"/><path class="fb2c70ab-30eb-463f-aff5-e44bd074687d" d="M585.8,469.15h14v45.07h-14Zm7-22.41a8.13,8.13,0,1,1-8.12,8.13,8.13,8.13,0,0,1,8.12-8.13"/><path class="fb2c70ab-30eb-463f-aff5-e44bd074687d" d="M608.6,469.15H622v6.16h.19c1.87-3.55,6.44-7.28,13.25-7.28,14.19,0,16.81,9.33,16.81,21.47v24.72h-14V492.3c0-5.23-.09-11.95-7.28-11.95s-8.4,5.7-8.4,11.57v22.3h-14Z"/><path class="e72b978a-314f-4ee9-9bc2-dda13203c8ad" d="M776.67,508a19.18,19.18,0,0,1-19.18,19.17h-55A19.18,19.18,0,0,1,683.32,508V453a19.18,19.18,0,0,1,19.18-19.17h55A19.18,19.18,0,0,1,776.67,453Z"/><path class="fb2c70ab-30eb-463f-aff5-e44bd074687d" d="M718.88,507.53c24.53,0,38-20.33,38-37.95,0-.58,0-1.16,0-1.73a27.1,27.1,0,0,0,6.65-6.9,26.9,26.9,0,0,1-7.66,2.1,13.43,13.43,0,0,0,5.87-7.38,27.06,27.06,0,0,1-8.47,3.24,13.36,13.36,0,0,0-22.73,12.16A37.9,37.9,0,0,1,703,457.14a13.33,13.33,0,0,0,4.13,17.8,13.24,13.24,0,0,1-6-1.67,1,1,0,0,0,0,.17,13.35,13.35,0,0,0,10.7,13.08,13.51,13.51,0,0,1-3.51.47,13,13,0,0,1-2.51-.25A13.35,13.35,0,0,0,718.18,496a26.77,26.77,0,0,1-16.57,5.71,25.86,25.86,0,0,1-3.18-.19,37.7,37.7,0,0,0,20.45,6"/><path class="e1096df2-69e5-4a72-aed8-6ca23428ae6d" d="M275,198a176,176,0,0,1,83,20.7H377.8a186.85,186.85,0,0,0-247.27,37.62q3,4.26,6.25,8.33A176.4,176.4,0,0,1,275,198Z"/><path class="e1096df2-69e5-4a72-aed8-6ca23428ae6d" d="M275,341.35a186,186,0,0,0,99.65-28.78H354.17a176.8,176.8,0,0,1-217.39-48q-3.24,4.08-6.25,8.33A186.41,186.41,0,0,0,275,341.35Z"/><path class="e1096df2-69e5-4a72-aed8-6ca23428ae6d" d="M136.78,264.6q-3.24-4.07-6.25-8.33c-2.23,2.71-4.37,5.49-6.45,8.33,2.08,2.84,4.22,5.62,6.45,8.33Q133.53,268.67,136.78,264.6Z"/><path class="e1456265-39aa-4540-b281-b5e49abab5b3" d="M-4.69,231.78l45.95-40.39s55.24,74.85,106.38,46.09S60.44,131,25.1,127.93s-29.79,0-29.79,0"/><path class="fb2c70ab-30eb-463f-aff5-e44bd074687d" d="M-4.69,322.67,76.6,342.86S131.85,288.2,183,317,95.79,423.49,60.44,426.52a390.17,390.17,0,0,1-65.13,0"/><circle class="b7e252c5-1c0e-4cf8-b206-32ae2ffe80cc" cx="618.37" cy="160.59" r="34.84"/><circle class="e1096df2-69e5-4a72-aed8-6ca23428ae6d" cx="618.87" cy="160.09" r="7.57"/><path class="bfb3064b-7f5b-4c17-a170-349787caad8a" d="M-4.69,200.48l60.08-20.2s55.25,74.86,106.39,46.09S74.58,119.85,39.24,116.82s-43.93,0-43.93,0"/><path class="fb2c70ab-30eb-463f-aff5-e44bd074687d" d="M-4.69,166H76.6S131.85,240.84,183,212.08,95.79,105.56,60.44,102.53a390.17,390.17,0,0,0-65.13,0"/><path class="fb2c70ab-30eb-463f-aff5-e44bd074687d" d="M512.85,478.07H497.8v5.38h9a9.68,9.68,0,1,1-9.13-13,9.5,9.5,0,0,1,6.14,2.24h.26l4-4a15.22,15.22,0,0,0-10.37-4.07,15.67,15.67,0,0,0,0,31.33,14.82,14.82,0,0,0,3.32-.37,15.22,15.22,0,0,0,6.08-2.87,15.71,15.71,0,0,0,4.26-5.15,15.55,15.55,0,0,0,1.23-3.2,16,16,0,0,0,.28-4.2Z"/><rect class="fb2c70ab-30eb-463f-aff5-e44bd074687d" x="522.37" y="473.46" width="4.52" height="13.49"/><rect class="fb2c70ab-30eb-463f-aff5-e44bd074687d" x="517.89" y="477.96" width="13.49" height="4.51"/><path class="e1456265-39aa-4540-b281-b5e49abab5b3" d="M348.05,218.94h55a19.18,19.18,0,0,1,19.18,19.18v55a19.18,19.18,0,0,1-19.18,19.18h-55a19.17,19.17,0,0,1-19.17-19.17v-55A19.17,19.17,0,0,1,348.05,218.94Z"/><path class="fb2c70ab-30eb-463f-aff5-e44bd074687d" d="M376.33,231A34.08,34.08,0,0,0,347,282.47l-4.3,17.34,17.09-4.92A34.09,34.09,0,1,0,376.33,231Zm.39,62.52a28.18,28.18,0,0,1-16-5L351,291.32l2.48-10a28.3,28.3,0,1,1,23.28,12.21Z"/><path class="fb2c70ab-30eb-463f-aff5-e44bd074687d" d="M367.71,262.37,368.9,261c.66-.78,1.66-1.52,1.71-2.63a7.71,7.71,0,0,0-.71-3.09c-.24-.62-.49-1.24-.73-1.87a12.52,12.52,0,0,0-1.61-3.38,3,3,0,0,0-3.45-.54s-6.69,3.22-4.63,9.65A30.27,30.27,0,0,0,383.54,281s7.2,1,9.13-3.35a7.63,7.63,0,0,0,.63-3.29,2.74,2.74,0,0,0-1.59-2.13c-1.06-.61-2-1.18-3.21-1.77-1-.52-2.24-1.28-3.45-1a5.17,5.17,0,0,0-2.11,1.69c-.78.83-1.57,1.65-2.36,2.47C380.58,273.69,370.41,270,367.71,262.37Z"/><rect class="e1096df2-69e5-4a72-aed8-6ca23428ae6d" x="40.75" y="256.52" width="89.87" height="16.16"/><path class="b7e252c5-1c0e-4cf8-b206-32ae2ffe80cc" d="M950.6,305.66a474.48,474.48,0,0,1,74.72-256.34v51.8a451.73,451.73,0,0,0,0,409.08V562A474.48,474.48,0,0,1,950.6,305.66Z"/></g></g></svg>