
        <svg xmlns="http://www.w3.org/2000/svg" xmlns:xlink="http://www.w3.org/1999/xlink" version="1.1" width="3162.2881477858027" 
        height="1154.5765833165483" viewBox="0 0 3162.2881477858027 1154.5765833165483">
			
			<g transform="scale(8.114407389290132) translate(10, 10)">
				<defs id="SvgjsDefs1041"></defs><g id="SvgjsG1042" featureKey="symbolFeature-0" transform="matrix(1.3031914893617023,0,0,1.3031914893617023,-6.515957446808511,-1.5159574468085113)" fill="#ff7844"><path xmlns="http://www.w3.org/2000/svg" d="M50,5C25.1,5,5,25.1,5,50s20.1,45,45,45s45-20.1,45-45S74.9,5,50,5z M65.1,59.3l9.4-9.4L65,40.6c-0.5-0.4-0.7-1-0.7-1.6  c0-0.7,0.3-1.3,0.8-1.9c0.4-0.5,1-0.7,1.6-0.7c0,0,0,0,0.1,0c0.7,0,1.3,0.3,1.8,0.8L81.4,50L68.5,62.9c-0.9,0.9-2.5,0.9-3.5,0l0,0  c-0.4-0.4-0.7-1-0.7-1.6C64.3,60.6,64.5,59.9,65.1,59.3z M44,69.7c-0.2,0-0.5-0.1-0.8-0.2c-1.2-0.4-1.9-1.8-1.5-3.2l12-34.4l0,0  c0.2-0.6,0.6-1.1,1.2-1.4c0.3-0.2,0.7-0.2,1-0.2c0.3,0,0.6,0.1,0.9,0.2c1.2,0.4,1.9,1.8,1.5,3.2L46.3,68C46,69,45,69.7,44,69.7z   M34.9,40.6L25.6,50l9.4,9.4c0.5,0.4,0.7,1,0.7,1.6c0,0.7-0.3,1.3-0.8,1.8c-0.5,0.5-1.1,0.8-1.7,0.8c-0.6,0-1.3-0.3-1.7-0.8L18.6,50  l12.9-12.9c0.4-0.5,1-0.7,1.6-0.7c0.7,0,1.3,0.3,1.9,0.8c0.5,0.4,0.7,1,0.7,1.6C35.7,39.5,35.4,40.1,34.9,40.6z"></path></g><g id="SvgjsG1043" featureKey="nameFeature-0" transform="matrix(2.310492088334213,0,0,2.310492088334213,128.31254976989794,-20.590921331086196)" fill="#ffffff"><path d="M14.08 13.600000000000001 c2.72 0 4.76 0.76 6.12 2.24 c1.2 1.32 1.8 3.28 1.8 5.68 l0 10.6 c0 4.84 -2.8 7.88 -7.92 7.88 l-10 0 c-0.2 0 -0.32 -0.16 -0.32 -0.36 l0 -25.68 c0 -0.2 0.12 -0.36 0.32 -0.36 l10 0 z M16.76 30.92 l0 -8.2 c0 -2.52 -1.32 -4.12 -4.12 -4.12 l-3.6 0 l0 16.4 l3.6 0 c2.4 0 4.12 -1.56 4.12 -4.08 z M6.2 16.04 l0 21.52 c0 0.16 0.16 0.2 0.24 0.2 l6.52 0 c4.6 0 6.68 -2.76 6.68 -5.32 l0 -10.24 c0 -4.24 -2.24 -6.4 -6.8 -6.4 l-6.4 0 c-0.08 0 -0.24 0.04 -0.24 0.24 z M19.16 22.2 l0 10.24 c0 3.2 -3.2 4.88 -6.2 4.88 l-6.28 0 l0 -21 l6.16 0 c4.2 0 6.32 1.88 6.32 5.88 z M29.32 40 c-0.2 0 -0.32 -0.16 -0.32 -0.36 l0 -25.68 c0 -0.2 0.12 -0.36 0.32 -0.36 l4.56 0 c0.2 0 0.36 0.16 0.36 0.36 l0 25.68 c0 0.2 -0.16 0.36 -0.36 0.36 l-4.56 0 z M31.400000000000002 16 l0 21.56 c0 0.36 0.44 0.36 0.44 0 l0 -21.56 c0 -0.28 -0.44 -0.28 -0.44 0 z M41.92 40 c-0.2 0 -0.32 -0.16 -0.32 -0.36 l0 -25.68 c0 -0.2 0.12 -0.36 0.32 -0.36 l13.6 0 c0.2 0 0.36 0.16 0.36 0.36 l0 4.28 c0 0.2 -0.16 0.36 -0.36 0.36 l-8.64 0 l0 5.44 l6.72 0 c0.2 0 0.32 0.16 0.32 0.36 l0 4.36 c0 0.2 -0.12 0.36 -0.32 0.36 l-6.72 0 l0 5.88 l8.64 0 c0.2 0 0.36 0.16 0.36 0.36 l0 4.28 c0 0.2 -0.16 0.36 -0.36 0.36 l-13.6 0 z M43.92 16.12 l0 21.28 c0 0.24 0.16 0.32 0.32 0.32 l9.2 0 c0.36 0 0.28 -0.48 0 -0.48 l-9 0 l0 -10.44 l7.36 0 c0.24 0 0.24 -0.56 0 -0.56 l-7.36 0 l0 -9.92 l9 0 c0.28 0 0.36 -0.52 0 -0.52 l-9.2 0 c-0.16 0 -0.32 0.12 -0.32 0.32 z M73.56 13.96 c0 -0.2 0.16 -0.36 0.36 -0.36 l4.6 0 c0.2 0 0.36 0.16 0.36 0.36 l0 25.68 c0 0.2 -0.16 0.36 -0.36 0.36 l-4.44 0 c-0.16 0 -0.32 -0.08 -0.36 -0.2 l-5.84 -13.16 l0 13 c0 0.2 -0.16 0.36 -0.36 0.36 l-4.56 0 c-0.2 0 -0.32 -0.16 -0.32 -0.36 l0 -25.68 c0 -0.2 0.12 -0.36 0.32 -0.36 l4.72 0 c0.16 0 0.24 0.12 0.28 0.2 l5.6 12.92 l0 -12.76 z M76.44 37.6 l0 -21.6 c0 -0.28 -0.52 -0.36 -0.52 0 l0 20.56 l-10.44 -20.64 c-0.12 -0.16 -0.44 -0.16 -0.44 0.08 l0 21.56 c0 0.36 0.48 0.36 0.48 0 l0 -20.52 l10.4 20.6 c0.16 0.28 0.52 0.2 0.52 -0.04 z M101.48 24.36 c1.96 1.6 3 4 3 6.88 l0 0.48 c0 1.32 -0.2 2.6 -0.6 3.68 c-0.8 2.04 -2.44 3.6 -4.68 4.4 c-1.12 0.4 -2.4 0.6 -3.8 0.6 c-5.56 0 -9.2 -3.08 -9.2 -8.96 l0 -0.32 c0 -2.96 1.04 -5.4 2.88 -6.96 c-0.76 -1.2 -1.2 -2.64 -1.2 -4.04 c0 -4 3.52 -6.88 7.52 -6.88 c2 0 3.84 0.68 5.24 1.88 c0.64 0.64 1.24 1.32 1.6 2.12 c0.4 0.88 0.56 1.8 0.56 2.88 c0 1.44 -0.48 3 -1.32 4.24 z M95.4 18.16 c-1.16 0 -2.12 0.64 -2.12 1.96 c0 1.12 0.96 2.08 2.12 2.08 c1.08 0 2.04 -0.96 2.04 -2.08 c0 -1.08 -0.92 -1.96 -2.04 -1.96 z M95.4 35.04 c2.04 0 3.8 -1.64 3.8 -3.8 c0 -2.08 -1.6 -3.68 -3.8 -3.68 c-1.16 0 -2.12 0.4 -2.88 1.08 c-0.68 0.6 -1 1.6 -1 2.6 c0 2.2 1.52 3.8 3.88 3.8 z M95.44 38.2 c3.96 0 6.76 -2.68 6.76 -6.64 c0 -2 -0.68 -3.76 -1.88 -5.12 c-0.84 -0.88 -1.92 -1.52 -3.08 -1.84 c1.96 -0.6 3.24 -2.28 3.24 -4.44 c0 -2.76 -2.24 -4.96 -5.08 -4.96 c-2.88 0 -5.16 2.2 -5.16 4.96 c0 2.2 1.4 3.84 3.4 4.44 c-2.96 0.8 -5.12 3.56 -5.12 6.96 c0 1.84 0.72 3.56 2 4.84 c1.2 1.2 3 1.8 4.92 1.8 z M95.4 24.84 c1.88 0 3.44 0.72 4.52 1.96 c1.16 1.24 1.72 2.92 1.72 4.76 c0 1.8 -0.56 3.28 -1.72 4.44 c-1.12 1.16 -2.64 1.72 -4.48 1.72 c-1.8 0 -3.44 -0.56 -4.6 -1.72 s-1.8 -2.68 -1.8 -4.44 c0 -1.84 0.64 -3.52 1.84 -4.76 c1.16 -1.2 2.76 -1.96 4.52 -1.96 z M95.4 24.4 c-2.72 0 -4.6 -1.8 -4.6 -4.24 c0 -2.52 1.92 -4.44 4.6 -4.44 c2.6 0 4.6 1.92 4.6 4.44 c0 2.44 -1.92 4.24 -4.6 4.24 z"></path></g><g id="SvgjsG1044" featureKey="sloganFeature-0" transform="matrix(0.9469142449673615,0,0,0.9469142449673615,135.21980144973855,86.7503660735202)" fill="#ffffff"><path d="M7.34 6.98 c0 -0.1 0.08 -0.18 0.18 -0.18 l2.3 0 c0.1 0 0.18 0.08 0.18 0.18 l0 12.84 c0 0.1 -0.08 0.18 -0.18 0.18 l-2.22 0 c-0.08 0 -0.16 -0.04 -0.18 -0.1 l-2.92 -6.58 l0 6.5 c0 0.1 -0.08 0.18 -0.18 0.18 l-2.28 0 c-0.1 0 -0.16 -0.08 -0.16 -0.18 l0 -12.84 c0 -0.1 0.06 -0.18 0.16 -0.18 l2.36 0 c0.08 0 0.12 0.06 0.14 0.1 l2.8 6.46 l0 -6.38 z M10.88 8.22 l0 0.56 l-0.64 -0.6 l0 -0.58 z M10.88 9.36 l0 0.54 l-0.64 -0.6 l0 -0.58 z M10.88 10.48 l0 0.54 l-0.64 -0.6 l0 -0.56 z M10.88 11.6 l0 0.56 l-0.64 -0.6 l0 -0.58 z M10.88 12.719999999999999 l0 0.56 l-0.64 -0.62 l0 -0.56 z M5.38 7.699999999999999 l0.1 0.18 l-0.4 -0.38 l-0.06 -0.14 z M10.88 13.82 l0 0.58 l-0.64 -0.62 l0 -0.56 z M5.9 8.88 l0.42 0.98 l-0.38 -0.38 l-0.44 -1 z M7.1 11.66 l0 0.1 l-0.3 -0.3 l-0.42 -0.98 l0.36 0.38 z M10.88 14.96 l0 0.56 l-0.64 -0.62 l0 -0.54 z M10.88 16.08 l0 0.58 l-0.64 -0.64 l0 -0.54 z M10.88 17.2 l0 0.58 l-0.64 -0.62 l0 -0.56 z M10.88 18.32 l0 0.58 l-0.64 -0.62 l0 -0.58 z M10.88 19.46 l0 0.56 l-0.64 -0.62 l0 -0.58 z M4.74 15.02 l0 -0.52 l0.44 0.92 z M10.7 20.88 l-0.1 0 l-0.66 -0.66 c0.16 -0.04 0.26 -0.14 0.28 -0.26 l0.66 0.62 l0 0.12 c0 0.1 -0.08 0.18 -0.18 0.18 z M5.38 16.2 l0 0.56 l-0.64 -0.64 l0 -0.54 z M9.48 20.88 l-0.64 -0.62 l0.58 0 l0.62 0.62 l-0.56 0 z M5.38 17.32 l0 0.56 l-0.64 -0.6 l0 -0.58 z M8.32 20.82 l-0.54 -0.56 l0.52 0 l0.62 0.62 l-0.48 0 c-0.04 0 -0.06 0 -0.12 -0.06 z M5.38 18.46 l0 0.54 l-0.64 -0.62 l0 -0.56 z M5.38 19.56 l0 0.56 l-0.64 -0.62 l0 -0.54 z M4.38 20.26 c0.14 -0.04 0.26 -0.1 0.32 -0.24 l0.68 0.66 l0 0.02 c0 0.1 -0.08 0.18 -0.18 0.18 l-0.2 0 z M3.8 20.26 l0.62 0.62 l-0.54 0 l-0.64 -0.62 l0.56 0 z M2.22 20.26 l0.48 0 l0.6 0.62 l-0.4 0 c-0.06 0 -0.08 -0.02 -0.1 -0.06 c-0.06 -0.04 -0.32 -0.32 -0.58 -0.56 z M16.5415 20 c-0.1 0 -0.16 -0.08 -0.16 -0.18 l0 -12.84 c0 -0.1 0.06 -0.18 0.16 -0.18 l6.8 0 c0.1 0 0.18 0.08 0.18 0.18 l0 2.14 c0 0.1 -0.08 0.18 -0.18 0.18 l-4.32 0 l0 2.72 l3.36 0 c0.1 0 0.16 0.08 0.16 0.18 l0 2.18 c0 0.1 -0.06 0.18 -0.16 0.18 l-3.36 0 l0 2.94 l4.32 0 c0.1 0 0.18 0.08 0.18 0.18 l0 2.14 c0 0.1 -0.08 0.18 -0.18 0.18 l-6.8 0 z M22.8015 14.36 l0.62 0.62 l0 0.28 c0 0.06 -0.08 0.14 -0.12 0.14 l-0.7 -0.68 c0.12 -0.06 0.2 -0.2 0.2 -0.36 z M23.7815 19.82 l0.62 0.64 l0 0.24 c0 0.08 -0.08 0.16 -0.16 0.18 l-0.66 -0.7 c0.12 -0.06 0.2 -0.2 0.2 -0.36 z M22.8015 13.8 l0 -0.58 l0.62 0.64 l0 0.56 z M19.2815 10.28 l0 -0.58 l0.62 0.62 l0 0.58 z M19.9215 15.42 l-0.62 -0.62 l0.58 0 l0.62 0.62 l-0.58 0 z M24.2215 10.18 l-0.58 0 l-0.6 -0.62 l0.3 0 c0.08 0 0.16 -0.04 0.2 -0.06 z M19.2015 20.88 l-0.56 0 l-0.62 -0.62 l0.58 0 z M16.9015 20.26 l0.58 0 l0.6 0.62 l-0.56 0 z M23.7815 19.28 l0 -0.58 l0.62 0.62 l0 0.56 z M21.5415 14.8 l0.58 0 l0.6 0.62 l-0.54 0 z M22.5215 10.18 l-0.6 -0.62 l0.56 0 l0.62 0.62 l-0.58 0 z M22.5215 20.26 l0.56 0 l0.62 0.62 l-0.58 0 z M20.8015 9.56 l0.54 0 l0.64 0.62 l-0.58 0 z M21.9415 20.26 l0.64 0.62 l-0.58 0 l-0.6 -0.62 l0.54 0 z M21.0015 14.8 l0.6 0.62 l-0.56 0 l-0.62 -0.62 l0.58 0 z M20.3215 20.88 l-0.54 0 l-0.64 -0.62 l0.56 0 z M24.4015 9.22 l0 0.56 l-0.62 -0.62 l0 -0.56 z M19.9015 15.96 l0 0.54 l-0.62 -0.62 l0 -0.56 z M24.4015 8.1 l0 0.56 l-0.62 -0.64 l0 -0.54 z M19.6815 9.56 l0.54 0 l0.62 0.62 l-0.54 0 z M21.4415 20.88 l-0.54 0 l-0.62 -0.62 l0.54 0 z M19.2815 11.4 l0 -0.58 l0.62 0.64 l0 0.32 l-0.26 0 z M19.2815 17 l0 -0.54 l0.62 0.62 l0 0.18 l-0.38 0 z M22.8015 12.379999999999999 l0.58 0.58 c0.04 0.04 0.04 0.06 0.04 0.12 l0 0.22 l-0.62 -0.62 l0 -0.3 z M24.4015 18.52 l0 0.24 l-0.62 -0.6 l0 -0.3 l0.56 0.54 c0.06 0.06 0.06 0.08 0.06 0.12 z M28.743000000000002 9.3 c-0.1 0 -0.18 -0.08 -0.18 -0.18 l0 -2.14 c0 -0.1 0.08 -0.18 0.18 -0.18 l8.34 0 c0.1 0 0.18 0.08 0.18 0.18 l0 2.14 c0 0.1 -0.08 0.18 -0.18 0.18 l-2.84 0 l0 10.52 c0 0.1 -0.08 0.18 -0.18 0.18 l-2.3 0 c-0.1 0 -0.18 -0.08 -0.18 -0.18 l0 -10.52 l-2.84 0 z M37.523 7.16 c0.2 0.2 0.44 0.42 0.56 0.56 c0.04 0.04 0.06 0.08 0.06 0.1 l0 0.04 l-0.62 -0.64 l0 -0.06 z M37.523 8.36 l0 -0.58 l0.62 0.62 l0 0.58 z M37.523 9.12 l0 -0.22 l0.62 0.62 l0 0.48 c0 0.02 0 0.06 -0.02 0.08 l-0.68 -0.7 c0.04 -0.08 0.08 -0.16 0.08 -0.26 z M36.483000000000004 9.56 l0.56 0 l0.62 0.62 l-0.58 0 z M35.363 9.56 l0.56 0 l0.62 0.62 l-0.58 0 z M34.483000000000004 9.56 l0.3 0 l0.64 0.62 l-0.3 0 l0 0.24 l-0.64 -0.62 l0 -0.24 z M35.123000000000005 11 l0 0.56 l-0.64 -0.64 l0 -0.54 z M35.123000000000005 12.120000000000001 l0 0.56 l-0.64 -0.62 l0 -0.56 z M35.123000000000005 13.219999999999999 l0 0.58 l-0.64 -0.62 l0 -0.56 z M31.343 9.56 l0 0.46 l-0.48 -0.46 l0.48 0 z M30.363 10.18 l-0.62 -0.62 l0.54 0 l0.64 0.62 l-0.56 0 z M35.123000000000005 14.36 l0 0.56 l-0.64 -0.62 l0 -0.54 z M35.123000000000005 15.48 l0 0.58 l-0.64 -0.64 l0 -0.54 z M29.183 9.56 l0.6 0.62 l-0.16 0 c-0.06 0 -0.1 -0.02 -0.14 -0.06 l-0.56 -0.56 l0.26 0 z M35.123000000000005 16.6 l0 0.58 l-0.64 -0.62 l0 -0.58 z M35.123000000000005 17.72 l0 0.56 l-0.64 -0.6 l0 -0.58 z M34.483000000000004 18.8 l0 -0.58 l0.64 0.64 l0 0.54 z M35.123000000000005 19.98 l0 0.54 l-0.64 -0.62 l0 -0.54 z M34.883 20.88 l-0.56 0 l-0.6 -0.62 l0.36 0 c0.06 0 0.1 0 0.16 -0.04 z M33.763 20.88 l-0.54 0 l-0.64 -0.62 l0.56 0 z M31.943 20.26 l0.08 0 l0.62 0.62 c-0.06 0 -0.1 -0.02 -0.12 -0.06 z M56.8845 6.800000000000001 c0.12 0 0.2 0.1 0.16 0.22 l-3.44 12.86 c-0.02 0.08 -0.1 0.12 -0.18 0.12 l-2.2 0 c-0.08 0 -0.14 -0.04 -0.18 -0.12 l-1.36 -5.06 l-1.84 5.08 c-0.02 0.06 -0.06 0.1 -0.14 0.1 l-2.12 0 c-0.08 0 -0.14 -0.04 -0.16 -0.12 l-3.42 -12.88 c-0.02 -0.1 0.04 -0.2 0.18 -0.2 l2.3 0 c0.06 0 0.12 0.06 0.14 0.12 l2.22 8.48 l1.66 -5.02 l-0.92 -3.36 c-0.04 -0.12 0.06 -0.22 0.16 -0.22 l2.48 0 c0.08 0 0.12 0.02 0.16 0.12 l1.84 8.16 l2.2 -8.16 c0.02 -0.06 0.08 -0.12 0.16 -0.12 l2.3 0 z M57.8845 8 l-0.14 0.42 l-0.64 -0.64 l0.1 -0.46 z M57.624500000000005 8.88 l-0.1 0.44 l-0.68 -0.66 l0.14 -0.44 z M57.404500000000006 9.76 l-0.12 0.44 l-0.66 -0.64 l0.1 -0.46 z M57.14450000000001 10.66 l-0.1 0.44 l-0.66 -0.68 l0.12 -0.44 z M56.2445 10.88 l0.68 0.64 l-0.12 0.46 l-0.66 -0.68 z M56.68450000000001 12.42 l-0.1 0.44 l-0.68 -0.66 l0.12 -0.44 z M56.444500000000005 13.3 l-0.12 0.46 l-0.64 -0.68 l0.1 -0.46 z M51.50450000000001 8.9 l-0.56 -0.52 l-0.14 -0.72 l0.52 0.52 z M56.2045 14.18 l-0.1 0.44 l-0.68 -0.64 l0.12 -0.46 z M51.64450000000001 9.62 l0.18 0.74 l-0.54 -0.54 l-0.16 -0.72 z M55.984500000000004 15.08 l-0.14 0.42 l-0.64 -0.64 l0.1 -0.46 z M51.444500000000005 10.56 l0.54 0.52 l0.16 0.72 l-0.52 -0.52 z M55.724500000000006 15.96 l-0.1 0.44 l-0.68 -0.68 l0.14 -0.42 z M51.944500000000005 12.719999999999999 l-0.16 -0.72 l0.54 0.52 l0.16 0.68 l-0.04 0.02 z M52.3245 13.68 l-0.08 0.34 l-0.14 -0.56 z M55.50450000000001 16.82 l-0.12 0.46 l-0.66 -0.66 l0.1 -0.44 z M45.0245 7.5 l0.52 0.52 l0.2 0.76 l-0.52 -0.52 z M54.484500000000004 17.5 l0.12 -0.44 l0.64 0.66 l-0.1 0.46 z M55.0245 18.6 l-0.12 0.46 l-0.66 -0.68 l0.1 -0.42 z M46.14450000000001 10.3 l-0.52 -0.52 l-0.2 -0.76 l0.52 0.5 z M46.544500000000006 11.82 l-0.52 -0.52 l-0.2 -0.74 l0.52 0.5 z M54.00450000000001 19.28 l0.12 -0.46 l0.66 0.68 l-0.1 0.42 z M54.444500000000005 20.76 c0 0.02 -0.02 0.04 -0.04 0.04 l-0.68 -0.68 c0.06 -0.04 0.08 -0.06 0.1 -0.16 l0.06 -0.24 l0.66 0.66 z M46.224500000000006 12.059999999999999 l0.52 0.52 l0.2 0.78 l-0.52 -0.54 z M49.624500000000005 15.66 l0.16 0.52 l-0.24 -0.26 z M50.0245 17.1 l-0.1 0.32 l-0.68 -0.66 l0.16 -0.4 l0.58 0.6 z M52.724500000000006 20.26 l0.58 0 l0.62 0.62 l-0.58 0 z M46.904500000000006 14.42 l-0.08 -0.06 l-0.2 -0.78 l0.42 0.42 z M52.224500000000006 20.88 l-0.6 -0.62 l0.56 0 l0.62 0.62 l-0.58 0 z M49.78450000000001 17.86 l-0.16 0.4 l-0.68 -0.68 l0.16 -0.4 z M49.484500000000004 18.68 l-0.16 0.4 l-0.68 -0.68 l0.16 -0.4 z M49.18450000000001 19.5 l-0.16 0.4 l-0.68 -0.68 l0.16 -0.4 z M48.8845 20.32 l-0.16 0.4 l-0.68 -0.66 c0 -0.04 0.04 -0.06 0.04 -0.08 l0.12 -0.32 z M47.68450000000001 20.26 l0.62 0.62 l-0.56 0 l-0.62 -0.62 l0.56 0 z M47.18450000000001 20.88 l-0.56 0 l-0.62 -0.62 l0.58 0 z M67.126 6.619999999999999 c1.72 0 2.92 0.38 3.68 1.2 c0.6 0.66 0.88 1.6 0.88 2.94 l0 5.26 c0 1.38 -0.28 2.34 -0.88 2.98 c-0.78 0.8 -1.96 1.2 -3.68 1.2 c-1.78 0 -2.94 -0.4 -3.7 -1.2 c-0.58 -0.64 -0.9 -1.6 -0.9 -2.98 l0 -5.26 c0 -1.34 0.3 -2.3 0.9 -2.96 c0.76 -0.82 1.96 -1.18 3.7 -1.18 z M69.02600000000001 15.42 l0 -4 c0 -1.76 -0.94 -2.12 -1.8 -2.12 l-0.24 0 c-1.28 0 -1.78 0.82 -1.78 2.12 l0 4 c0 1.76 0.94 2.14 1.78 2.14 l0.24 0 c1.28 0 1.78 -0.86 1.8 -2.14 z M71.58600000000001 8.6 c0.04 0.06 0.1 0.1 0.1 0.1 c0.16 0.18 0.32 0.4 0.44 0.66 l-0.42 -0.44 c-0.06 -0.12 -0.08 -0.22 -0.12 -0.32 z M71.846 9.66 l0.56 0.54 c0.04 0.2 0.1 0.42 0.12 0.68 l-0.6 -0.6 c-0.02 -0.22 -0.04 -0.42 -0.08 -0.62 z M71.926 10.86 l0.62 0.6 l0 0.16 l0 0.4 l-0.62 -0.62 l0 -0.54 z M72.546 12.58 l0 0.58 l-0.62 -0.64 l0 -0.54 z M68.486 10.2 l-0.5 -0.5 c0.26 0.12 0.42 0.28 0.54 0.5 l-0.04 0 z M71.926 13.66 l0 -0.56 l0.62 0.6 l0 0.58 z M71.926 14.780000000000001 l0 -0.58 l0.62 0.62 l0 0.58 z M66.986 9.56 l0.3 0 l0.62 0.62 l-0.06 0 c-0.16 0 -0.32 0 -0.46 0.02 l-0.66 -0.62 c0.08 -0.02 0.18 -0.02 0.26 -0.02 z M71.926 15.9 l0 -0.58 l0.62 0.64 l0 0.54 z M65.906 9.88 c0.1 -0.1 0.22 -0.16 0.38 -0.2 l0.66 0.68 c-0.14 0.04 -0.24 0.12 -0.34 0.22 z M65.52600000000001 10.62 c0.06 -0.16 0.08 -0.3 0.16 -0.42 l0.66 0.68 c-0.06 0.12 -0.12 0.24 -0.14 0.4 z M71.88600000000001 16.98 c0.02 -0.18 0.04 -0.36 0.04 -0.52 l0.62 0.62 c0 0.18 -0.02 0.38 -0.02 0.52 z M71.706 17.9 c0.04 -0.12 0.08 -0.3 0.1 -0.44 l0.64 0.64 c-0.02 0.18 -0.04 0.32 -0.1 0.48 z M65.44600000000001 11.42 c0 -0.1 0 -0.2 0.04 -0.3 l0.62 0.64 c-0.02 0.16 -0.02 0.34 -0.02 0.52 l-0.64 -0.6 l0 -0.26 z M71.346 18.68 c0.08 -0.1 0.16 -0.22 0.2 -0.36 l0.68 0.68 c-0.04 0.12 -0.12 0.26 -0.2 0.38 z M65.44600000000001 12.8 l0 -0.58 l0.64 0.64 l0 0.54 z M70.846 19.3 c0.14 -0.1 0.16 -0.12 0.28 -0.28 l0.7 0.68 c-0.02 0.08 -0.14 0.2 -0.28 0.3 z M65.44600000000001 13.9 l0 -0.54 l0.64 0.62 l0 0.54 z M70.206 19.78 c0.12 -0.06 0.24 -0.12 0.34 -0.2 l0.68 0.68 c-0.1 0.06 -0.2 0.14 -0.32 0.22 z M65.44600000000001 15.02 l0 -0.54 l0.64 0.62 l0 0.56 z M69.846 19.98 l0.68 0.68 c-0.14 0.04 -0.28 0.1 -0.42 0.14 l-0.68 -0.68 c0.16 -0.04 0.28 -0.1 0.42 -0.14 z M65.486 15.6 l0.6 0.6 l0 0.06 c0 0.2 0 0.4 0.02 0.54 l-0.52 -0.52 c-0.08 -0.2 -0.1 -0.42 -0.1 -0.68 z M69.006 20.26 l0.64 0.66 c-0.14 0.04 -0.3 0.06 -0.46 0.08 l-0.66 -0.64 c0.18 -0.04 0.32 -0.06 0.48 -0.1 z M68.126 21.08 l-0.62 -0.62 c0.2 0 0.38 0 0.52 -0.04 l0.66 0.64 c-0.18 0 -0.36 0.02 -0.56 0.02 z M67.546 21.08 c-0.2 -0.02 -0.4 -0.02 -0.6 -0.06 l-0.56 -0.6 c0.16 0.04 0.36 0.04 0.56 0.04 z M65.486 20.68 l-0.46 -0.48 c0.22 0.08 0.46 0.12 0.7 0.16 l0.52 0.54 c-0.26 -0.04 -0.52 -0.12 -0.76 -0.22 z M85.3075 14.780000000000001 c-0.28 0.58 -0.68 1.02 -1.24 1.28 l1.68 3.7 c0.06 0.12 -0.02 0.24 -0.14 0.24 l-2.46 0 c-0.08 0 -0.12 -0.04 -0.14 -0.1 l-1.56 -3.4 l-1.02 0 l0 3.32 c0 0.1 -0.08 0.18 -0.18 0.18 l-2.3 0 c-0.08 0 -0.14 -0.08 -0.14 -0.18 l0 -12.84 c0 -0.1 0.06 -0.18 0.14 -0.18 l4.16 0 c2.22 0 3.56 1.26 3.56 3.6 l0 2.52 c0 0.7 -0.12 1.36 -0.36 1.86 z M83.04750000000001 12.3 l0 -1.3 c0 -1.4 -0.52 -1.54 -2.04 -1.54 l-0.58 0 l0 4.42 l0.58 0 c1.26 0 2 -0.02 2.04 -1.58 z M85.56750000000001 20.88 l-0.62 -0.62 l0.56 0 l0.62 0.62 l-0.56 0 z M80.6675 17.1 l0 -0.34 l0.2 0 l0.64 0.62 l-0.2 0 l0 0.34 z M84.4475 20.88 l-0.62 -0.62 l0.54 0 l0.64 0.62 l-0.56 0 z M81.3075 18.86 l-0.64 -0.64 l0 -0.54 l0.64 0.62 l0 0.56 z M81.3075 19.98 l-0.64 -0.62 l0 -0.56 l0.64 0.62 l0 0.56 z M80.42750000000001 20.22 c0.12 -0.04 0.22 -0.16 0.24 -0.32 l0.64 0.66 l0 0.14 c0 0.1 -0.08 0.18 -0.18 0.18 l-0.06 0 z M79.9475 20.88 l-0.62 -0.62 l0.58 0 l0.62 0.62 l-0.58 0 z M78.82750000000001 20.88 l-0.62 -0.62 l0.56 0 l0.64 0.62 l-0.58 0 z M86.50750000000001 10.6 l-0.58 -0.6 c-0.02 -0.22 -0.06 -0.44 -0.1 -0.64 l0.52 0.52 c0.08 0.22 0.12 0.48 0.16 0.72 z M86.54750000000001 11.76 l-0.62 -0.64 l0 -0.54 l0.62 0.62 l0 0.56 z M86.54750000000001 12.879999999999999 l-0.62 -0.62 l0 -0.56 l0.62 0.62 l0 0.56 z M85.90750000000001 13.36 c0.02 -0.14 0.02 -0.28 0.02 -0.44 l0 -0.1 l0.62 0.64 l0 0.34 l0 0.2 z M82.32750000000001 9.78 c0.14 0.08 0.24 0.18 0.34 0.34 z M82.3075 10.32 l-0.56 0 l-0.62 -0.62 l0.54 0 z M86.42750000000001 15 l-0.68 -0.68 c0.02 -0.14 0.08 -0.3 0.1 -0.46 l0.66 0.66 c-0.04 0.16 -0.06 0.34 -0.08 0.48 z M81.3075 10.46 l0 0.54 l-0.64 -0.62 l0 -0.58 z M85.40750000000001 15.1 c0.04 -0.08 0.06 -0.12 0.12 -0.22 c0.02 -0.06 0.04 -0.1 0.08 -0.16 l0.66 0.7 c-0.02 0.08 -0.04 0.16 -0.1 0.24 c-0.02 0.04 -0.04 0.1 -0.06 0.14 z M81.3075 11.56 l0 0.56 l-0.64 -0.62 l0 -0.58 z M85.62750000000001 16.46 l-0.7 -0.7 c0.1 -0.1 0.18 -0.2 0.24 -0.3 l0.7 0.7 c-0.06 0.1 -0.14 0.2 -0.24 0.3 z M81.3075 12.68 l0 0.58 l-0.64 -0.64 l0 -0.56 z M84.54750000000001 16.5 l-0.14 -0.32 c0.06 -0.06 0.14 -0.1 0.22 -0.18 l0.7 0.7 c-0.1 0.08 -0.22 0.16 -0.36 0.22 z M85.8675 18.92 l-0.36 -0.36 l-0.48 -1.04 l0.38 0.38 z M80.6675 13.620000000000001 l0 -0.44 l0.46 0.44 l-0.12 0 l-0.34 0 z M85.92750000000001 20.12 c0.12 -0.12 0.12 -0.3 0.08 -0.46 l-0.04 -0.06 l0.36 0.36 l0.32 0.66 c0.02 0.08 0 0.14 -0.02 0.18 z M100.22900000000001 6.800000000000001 c0.14 0 0.22 0.16 0.14 0.28 l-3.14 4.34 l3.32 8.36 c0.04 0.1 -0.02 0.22 -0.16 0.22 l-2.7 0 c-0.06 0 -0.12 -0.04 -0.14 -0.12 l-2.08 -5.98 l-1.02 1.4 l0 4.52 c0 0.1 -0.08 0.18 -0.18 0.18 l-2.28 0 c-0.1 0 -0.16 -0.08 -0.16 -0.18 l0 -12.84 c0 -0.1 0.06 -0.18 0.16 -0.18 l2.28 0 c0.1 0 0.18 0.08 0.18 0.18 l0 4.14 l3.14 -4.24 c0.06 -0.08 0.08 -0.08 0.16 -0.08 l2.48 0 z M100.42900000000002 7.4 c0.12 -0.2 0.14 -0.22 0.16 -0.24 l0.58 0.6 c0.08 0.06 0.08 0.12 0.02 0.2 l-0.1 0.12 z M99.94900000000001 8.06 l0.24 -0.34 l0.68 0.68 l-0.22 0.32 z M99.489 8.7 l0.24 -0.32 l0.66 0.7 l-0.22 0.32 z M99.94900000000001 9.72 l-0.26 0.34 l-0.66 -0.7 l0.22 -0.34 z M99.46900000000001 10.38 l-0.24 0.32 l-0.68 -0.7 l0.22 -0.32 z M94.68900000000001 7.16 l0.58 0.56 c0.02 0.04 0.06 0.06 0.06 0.1 l0 0.08 l-0.64 -0.62 l0 -0.12 z M98.989 11.02 l-0.22 0.34 l-0.7 -0.7 l0.26 -0.34 z M98.52900000000001 11.68 l-0.24 0.32 l-0.7 -0.68 l0.26 -0.34 z M95.32900000000001 8.46 l0 0.56 l-0.64 -0.62 l0 -0.54 z M95.28900000000002 9.56 l-0.24 0.32 l-0.36 -0.36 l0 -0.54 z M97.72900000000001 11.98 l0.4 0.42 l0.36 0.92 l-0.4 -0.4 z M94.68900000000001 10.38 l0 -0.3 l0.14 0.12 z M98.46900000000001 13.86 l0.4 0.42 l0.38 0.92 l-0.42 -0.42 z M99.18900000000001 15.719999999999999 l0.44 0.4 l0.36 0.96 l-0.42 -0.42 z M99.94900000000001 17.58 l0.42 0.42 l0.38 0.96 l-0.42 -0.44 z M95.549 14.86 l-0.28 -0.26 l0.12 -0.18 z M101.12900000000002 19.88 l0.3 0.74 c0.02 0.06 0.02 0.08 0 0.14 l-0.68 -0.68 c0.08 -0.12 0.1 -0.28 0.04 -0.4 l-0.1 -0.22 z M94.78900000000002 15.26 l0.26 -0.34 l0.68 0.68 l-0.24 0.32 z M100.42900000000002 20.88 l-0.6 -0.62 l0.54 0 l0.62 0.62 l-0.56 0 z M95.32900000000001 16.32 l0 0.56 l-0.64 -0.62 l0 -0.56 z M98.68900000000001 20.26 l0.56 0 l0.62 0.62 l-0.58 0 z M97.86900000000001 20.26 l0.26 0 l0.62 0.62 l-0.18 0 c-0.04 0 -0.1 -0.02 -0.12 -0.06 c-0.06 -0.04 -0.36 -0.34 -0.58 -0.56 z M95.32900000000001 17.46 l0 0.54 l-0.64 -0.62 l0 -0.56 z M95.32900000000001 18.56 l0 0.56 l-0.64 -0.62 l0 -0.54 z M94.68900000000001 19.62 l0 -0.54 l0.64 0.6 l0 0.58 z M95.14900000000002 20.88 l-0.32 0 l-0.64 -0.62 l0.08 0 c0.16 0 0.26 -0.06 0.32 -0.16 l0.7 0.68 c-0.02 0.04 -0.1 0.1 -0.14 0.1 z M94.24900000000001 20.88 l-0.56 0 l-0.62 -0.62 l0.58 0 z M92.16900000000001 20.26 l0.36 0 l0.6 0.62 l-0.28 0 c-0.06 0 -0.08 -0.02 -0.1 -0.06 c-0.06 -0.04 -0.32 -0.32 -0.58 -0.56 z M128.33200000000002 19.7 c0.14 0.1 0.06 0.3 -0.1 0.3 l-3.3 0 c-0.06 0 -0.1 0 -0.14 -0.08 l-0.5 -0.7 c-0.78 0.64 -1.78 0.98 -2.92 0.98 l-0.64 0 c-0.86 0 -1.64 -0.1 -2.3 -0.32 c-0.56 -0.2 -1.06 -0.5 -1.42 -0.9 c-0.62 -0.66 -0.94 -1.66 -0.94 -2.98 c0 -0.88 0.12 -1.5 0.36 -2.04 c0.24 -0.5 0.6 -0.94 1.16 -1.34 c-0.7 -0.86 -0.98 -1.72 -0.98 -2.7 c0 -1.1 0.38 -1.92 1.16 -2.46 c0.74 -0.56 1.9 -0.86 3.36 -0.86 c1.26 0 2.3 0.32 3.04 0.88 c0.34 0.3 0.62 0.64 0.82 1.02 c0.2 0.36 0.28 0.8 0.28 1.26 c0 0.16 -0.04 0.24 -0.08 0.26 l-2.36 1.46 c-0.12 0.08 -0.26 0 -0.26 -0.16 l0 -0.74 c0 -0.88 -0.6 -1.3 -1.28 -1.3 l-0.52 0 c-0.64 0 -1.14 0.24 -1.34 0.68 c-0.1 0.24 -0.06 0.52 0.04 0.8 c0.12 0.36 0.36 0.72 0.72 1.06 l3.42 3.28 l0 -0.78 l0 -1.06 c0 -0.08 0.02 -0.14 0.08 -0.16 l2.42 -1.52 c0.12 -0.08 0.26 0 0.26 0.12 l0 2.3 c0 1.12 -0.24 2.26 -0.6 3.18 z M121.07200000000002 17.5 c0.4 0 0.76 -0.12 1.12 -0.28 l-2.76 -2.64 c-0.12 0.1 -0.64 0.52 -0.64 1.24 c0 0.9 0.54 1.68 1.58 1.68 l0.7 0 z M124.89200000000001 11.6 l-0.7 -0.68 l0.34 -0.22 l0.7 0.7 z M123.49200000000002 11.36 l0.34 -0.24 l0.7 0.7 l-0.34 0.2 z M123.27200000000002 20.1 c0.12 -0.04 0.26 -0.1 0.4 -0.18 l0.66 0.68 c-0.12 0.08 -0.24 0.12 -0.4 0.18 z M120.79200000000002 10.32 c-0.12 0.06 -0.22 0.16 -0.32 0.26 l-0.68 -0.7 c0.08 -0.1 0.2 -0.18 0.32 -0.22 z M125.91200000000002 10.98 l-0.34 0.2 l-0.68 -0.68 l0.34 -0.22 z M122.39200000000001 20.36 l0.48 -0.1 l0.64 0.64 c-0.14 0.06 -0.3 0.08 -0.48 0.1 z M126.29200000000002 16.38 c0.04 -0.16 0.08 -0.3 0.1 -0.46 l0.68 0.66 l-0.14 0.48 z M119.11200000000002 15.379999999999999 l0.68 0.68 c-0.06 0.12 -0.1 0.26 -0.12 0.44 l-0.64 -0.64 l0 -0.04 c0 -0.14 0.04 -0.3 0.08 -0.44 z M126.23200000000001 20.26 l0.6 0.62 l-0.54 0 l-0.62 -0.62 l0.56 0 z M126.49200000000002 15.46 l0.08 -0.48 l0.62 0.62 l-0.06 0.5 z M126.61200000000002 14 l0 -0.1 l0.6 0.6 l0 0.58 l-0.62 -0.62 c0 -0.16 0.02 -0.3 0.02 -0.46 z M122.53200000000001 21.06 c-0.1 0 -0.2 0.02 -0.32 0.02 l-0.22 0 l-0.6 -0.62 c0.18 0 0.34 0 0.52 -0.04 z M129.092 20.88 l-0.56 0 l-0.62 -0.62 l0.32 0 c0.06 0 0.14 -0.04 0.18 -0.06 z M121.73200000000001 10.16 l-0.12 0 c-0.14 0 -0.28 0 -0.4 0.02 l-0.64 -0.66 l0.54 0 z M127.97200000000001 20.88 l-0.56 0 l-0.62 -0.62 l0.54 0 z M126.11200000000002 10.6 l-0.62 -0.62 c0.02 -0.1 0.02 -0.18 0.02 -0.22 c0 -0.14 0 -0.24 -0.02 -0.36 l0.58 0.58 c0.04 0.2 0.04 0.42 0.04 0.62 z M120.81200000000001 20.46 l0.62 0.62 l-0.6 -0.06 l-0.6 -0.6 c0.18 0.04 0.34 0.04 0.5 0.04 l0.08 0 z M126.61200000000002 13.32 l0 -0.54 l0.6 0.62 l0 0.56 z M120.21200000000002 20.96 c-0.24 -0.04 -0.5 -0.08 -0.72 -0.16 l-0.52 -0.52 c0.2 0.04 0.42 0.08 0.66 0.12 z M120.27200000000002 10.92 c-0.06 0.18 -0.06 0.38 0.02 0.58 l-0.36 -0.34 c-0.16 -0.26 -0.3 -0.54 -0.32 -0.88 z M123.17200000000001 11.58 l0.66 0.68 l-0.14 0.1 c-0.08 0.02 -0.16 0.02 -0.2 -0.04 l-0.6 -0.6 c0.02 -0.02 0.04 -0.02 0.28 -0.14 z M126.81200000000001 17.48 c-0.02 0.1 -0.04 0.2 -0.1 0.3 l-0.68 -0.68 l0.14 -0.3 z M126.61200000000002 11.88 l0.56 0.58 c0.02 0.02 0.04 0.06 0.04 0.12 l0 0.24 l-0.6 -0.62 l0 -0.32 z M124.57200000000002 20.08 c0.1 0.14 0.22 0.18 0.34 0.18 l0.02 0 l-0.24 0.14 l-0.68 -0.68 l0.22 -0.14 z M120.13200000000002 15.6 c-0.04 0.02 -0.06 0.08 -0.12 0.12 l-0.7 -0.7 c0.06 -0.02 0.08 -0.06 0.1 -0.1 z M119.37200000000001 16.82 c-0.06 -0.04 -0.1 -0.14 -0.16 -0.22 l0.48 0.48 l0 0.02 c-0.12 -0.08 -0.22 -0.18 -0.32 -0.28 z M121.97200000000001 9.76 c0.1 0.06 0.14 0.16 0.2 0.26 l-0.4 -0.4 c0.06 0.04 0.14 0.08 0.2 0.14 z M118.47200000000001 20.36 c-0.18 -0.14 -0.34 -0.24 -0.46 -0.36 c0.06 0 0.1 0.02 0.16 0.06 z M125.31200000000001 8.62 c0.1 0.1 0.18 0.2 0.26 0.3 l-0.24 -0.22 c0 -0.02 0 -0.04 -0.02 -0.08 z M148.775 11.9 c1.52 0.72 3.5 1.86 3.5 3.92 c0 0.6 -0.1 1.76 -0.76 2.74 c-0.74 1.1 -1.9 1.64 -3.5 1.64 c-1.7 0 -3.68 -0.82 -4.3 -2.68 c-0.02 -0.06 0 -0.12 0.06 -0.16 l1.84 -1.58 c0.08 -0.06 0.2 -0.06 0.26 0.04 c0.04 0.1 0.12 0.26 0.22 0.46 c0.3 0.62 1.02 1.24 1.82 1.24 c0.62 0 1.46 -0.34 1.46 -1.3 c0 -0.92 -1.26 -1.44 -2.04 -1.74 c-0.9 -0.36 -1.82 -0.82 -2.6 -1.5 c-0.82 -0.76 -1.22 -1.6 -1.22 -2.6 c0 -2.5 2.3 -3.76 4.48 -3.76 c1.72 0 3 0.9 3.84 2.68 c0.04 0.08 0 0.18 -0.06 0.22 l-1.78 1.24 c-0.08 0.04 -0.12 0.04 -0.2 -0.06 c-0.68 -0.98 -1.28 -1.44 -2.08 -1.44 c-0.42 0 -1.4 0.16 -1.4 0.9 c0 0.9 1.66 1.36 2.46 1.74 z M151.91500000000002 9.72 c0.12 -0.1 0.2 -0.24 0.18 -0.4 l0.34 0.36 c0.08 0.14 0.18 0.32 0.28 0.5 c0.02 0.08 0 0.18 -0.08 0.22 l-0.02 0.02 z M151.97500000000002 10.88 l-0.7 -0.7 l0.32 -0.22 l0.7 0.7 z M151.29500000000002 11.32 l-0.7 -0.7 l0.32 -0.22 l0.7 0.7 z M148.595 9.76 c0.18 0.12 0.34 0.26 0.52 0.44 c-0.02 0 -0.08 -0.02 -0.1 -0.02 z M147.275 9.56 c0.14 -0.04 0.3 -0.06 0.52 -0.06 l0.62 0.66 c-0.14 0 -0.3 0.02 -0.48 0.06 z M146.595 10 c0.02 -0.08 0.1 -0.2 0.28 -0.3 l0.7 0.7 c-0.14 0.08 -0.24 0.18 -0.28 0.3 z M152.51500000000001 15.92 l0 -0.1 c0 -0.16 -0.02 -0.34 -0.04 -0.5 l0.54 0.56 c0.06 0.2 0.1 0.42 0.1 0.64 z M152.41500000000002 16.96 c0.02 -0.18 0.06 -0.36 0.06 -0.5 l0.64 0.64 c0 0.16 -0.02 0.3 -0.04 0.5 z M152.835 18.5 l-0.66 -0.68 c0.04 -0.14 0.1 -0.3 0.12 -0.42 l0.68 0.68 c-0.04 0.12 -0.08 0.28 -0.14 0.42 z M152.495 19.26 l-0.7 -0.68 c0.08 -0.12 0.14 -0.26 0.2 -0.38 l0.7 0.7 c-0.08 0.12 -0.12 0.26 -0.2 0.36 z M152.01500000000001 19.9 l-0.7 -0.7 c0.08 -0.1 0.18 -0.2 0.26 -0.3 l0.7 0.7 c-0.08 0.1 -0.18 0.2 -0.26 0.3 z M146.495 14.4 c0.24 0.1 0.5 0.22 0.74 0.32 c0.08 0.04 0.16 0.06 0.24 0.08 l0.42 0.42 c-0.38 -0.14 -0.76 -0.32 -1.1 -0.54 z M151.395 20.42 l-0.68 -0.7 c0.1 -0.06 0.2 -0.14 0.3 -0.24 l0.7 0.7 c-0.1 0.1 -0.2 0.18 -0.32 0.24 z M150.63500000000002 20.8 l-0.66 -0.68 c0.14 -0.06 0.26 -0.12 0.4 -0.2 l0.66 0.7 c-0.12 0.08 -0.24 0.14 -0.4 0.18 z M146.79500000000002 16.8 c-0.16 -0.12 -0.26 -0.28 -0.36 -0.4 l0.28 0.28 l0.02 0.02 c0.04 0.02 0.04 0.06 0.06 0.1 z M149.775 21.02 l-0.68 -0.64 c0.18 -0.06 0.32 -0.08 0.48 -0.12 l0.64 0.66 c-0.14 0.06 -0.3 0.08 -0.44 0.1 z M148.69500000000002 21.08 l-0.62 -0.62 c0.2 0 0.36 0 0.52 -0.04 l0.64 0.66 l-0.54 0 z M147.335 20.86 l-0.52 -0.54 c0.22 0.06 0.46 0.08 0.68 0.1 l0.58 0.6 c-0.24 -0.04 -0.48 -0.1 -0.74 -0.16 z M146.41500000000002 20.48 c-0.3 -0.16 -0.58 -0.36 -0.82 -0.58 c0.12 0.08 0.28 0.16 0.42 0.2 z M150.07500000000002 11 l0.2 -0.12 l0.7 0.68 l-0.1 0.06 c-0.08 0.06 -0.1 0.08 -0.2 -0.02 z M158.0565 20 c-0.1 0 -0.16 -0.08 -0.16 -0.18 l0 -12.84 c0 -0.1 0.06 -0.18 0.16 -0.18 l6.8 0 c0.1 0 0.18 0.08 0.18 0.18 l0 2.14 c0 0.1 -0.08 0.18 -0.18 0.18 l-4.32 0 l0 2.72 l3.36 0 c0.1 0 0.16 0.08 0.16 0.18 l0 2.18 c0 0.1 -0.06 0.18 -0.16 0.18 l-3.36 0 l0 2.94 l4.32 0 c0.1 0 0.18 0.08 0.18 0.18 l0 2.14 c0 0.1 -0.08 0.18 -0.18 0.18 l-6.8 0 z M164.31650000000002 14.36 l0.62 0.62 l0 0.28 c0 0.06 -0.08 0.14 -0.12 0.14 l-0.7 -0.68 c0.12 -0.06 0.2 -0.2 0.2 -0.36 z M165.2965 19.82 l0.62 0.64 l0 0.24 c0 0.08 -0.08 0.16 -0.16 0.18 l-0.66 -0.7 c0.12 -0.06 0.2 -0.2 0.2 -0.36 z M164.31650000000002 13.8 l0 -0.58 l0.62 0.64 l0 0.56 z M160.7965 10.28 l0 -0.58 l0.62 0.62 l0 0.58 z M161.4365 15.42 l-0.62 -0.62 l0.58 0 l0.62 0.62 l-0.58 0 z M165.7365 10.18 l-0.58 0 l-0.6 -0.62 l0.3 0 c0.08 0 0.16 -0.04 0.2 -0.06 z M160.7165 20.88 l-0.56 0 l-0.62 -0.62 l0.58 0 z M158.4165 20.26 l0.58 0 l0.6 0.62 l-0.56 0 z M165.2965 19.28 l0 -0.58 l0.62 0.62 l0 0.56 z M163.0565 14.8 l0.58 0 l0.6 0.62 l-0.54 0 z M164.03650000000002 10.18 l-0.6 -0.62 l0.56 0 l0.62 0.62 l-0.58 0 z M164.03650000000002 20.26 l0.56 0 l0.62 0.62 l-0.58 0 z M162.31650000000002 9.56 l0.54 0 l0.64 0.62 l-0.58 0 z M163.4565 20.26 l0.64 0.62 l-0.58 0 l-0.6 -0.62 l0.54 0 z M162.5165 14.8 l0.6 0.62 l-0.56 0 l-0.62 -0.62 l0.58 0 z M161.8365 20.88 l-0.54 0 l-0.64 -0.62 l0.56 0 z M165.9165 9.22 l0 0.56 l-0.62 -0.62 l0 -0.56 z M161.4165 15.96 l0 0.54 l-0.62 -0.62 l0 -0.56 z M165.9165 8.1 l0 0.56 l-0.62 -0.64 l0 -0.54 z M161.19650000000001 9.56 l0.54 0 l0.62 0.62 l-0.54 0 z M162.9565 20.88 l-0.54 0 l-0.62 -0.62 l0.54 0 z M160.7965 11.4 l0 -0.58 l0.62 0.64 l0 0.32 l-0.26 0 z M160.7965 17 l0 -0.54 l0.62 0.62 l0 0.18 l-0.38 0 z M164.31650000000002 12.379999999999999 l0.58 0.58 c0.04 0.04 0.04 0.06 0.04 0.12 l0 0.22 l-0.62 -0.62 l0 -0.3 z M165.9165 18.52 l0 0.24 l-0.62 -0.6 l0 -0.3 l0.56 0.54 c0.06 0.06 0.06 0.08 0.06 0.12 z M177.298 15.379999999999999 l0 -0.62 c0 -0.1 0.08 -0.18 0.18 -0.18 l2.28 0 c0.1 0 0.18 0.08 0.18 0.18 l0 1.26 c0 2.94 -1.58 4.18 -4.56 4.18 c-2.78 0 -4.6 -1.1 -4.6 -4.18 l0 -5.26 c0 -2.96 1.62 -4.14 4.6 -4.14 c2.82 0 4.56 1.08 4.56 4.14 l0 0.42 c0 0.1 -0.08 0.18 -0.18 0.18 l-2.3 0 c-0.1 0 -0.18 -0.08 -0.18 -0.18 l0 -0.32 c0 -1.1 -0.82 -1.56 -1.8 -1.56 l-0.24 0 c-0.66 0 -1.1 0.18 -1.4 0.58 c-0.28 0.38 -0.38 0.88 -0.38 1.54 l0 3.96 c0 1.74 0.98 2.12 1.78 2.12 l0.24 0 c0.66 0 1.12 -0.18 1.42 -0.58 c0.26 -0.36 0.4 -0.86 0.4 -1.54 z M174.978 10.46 c-0.1 0.1 -0.2 0.16 -0.28 0.3 l-0.7 -0.7 c0.04 -0.08 0.2 -0.26 0.28 -0.28 z M179.87800000000001 19.86 l-0.3 0.26 l-0.68 -0.7 c0.14 -0.1 0.2 -0.16 0.28 -0.26 z M180.33800000000002 19.18 c-0.08 0.12 -0.14 0.24 -0.2 0.34 l-0.7 -0.66 l0.22 -0.36 z M180.798 11.78 l0 0.28 c0 0.06 -0.06 0.14 -0.14 0.16 l-0.68 -0.7 c0.12 -0.06 0.2 -0.2 0.2 -0.34 z M173.73800000000003 10.9 c0.02 -0.18 0.04 -0.32 0.1 -0.48 l0.66 0.68 c-0.04 0.12 -0.1 0.28 -0.12 0.46 z M175.198 9.56 l0.64 0.62 c-0.18 0.02 -0.34 0.04 -0.48 0.1 l-0.68 -0.68 c0.12 -0.04 0.4 -0.08 0.52 -0.04 z M180.77800000000002 17.38 c0 0.18 -0.02 0.34 -0.04 0.52 l-0.66 -0.64 l0.08 -0.5 z M178.578 19.68 l0.68 0.68 c-0.1 0.06 -0.22 0.14 -0.36 0.2 l-0.66 -0.68 c0.12 -0.06 0.24 -0.12 0.34 -0.2 z M180.638 18.36 c-0.04 0.14 -0.08 0.3 -0.14 0.42 l-0.66 -0.68 c0.06 -0.2 0.1 -0.3 0.14 -0.4 z M178.078 20.86 l-0.64 -0.66 l0.4 -0.14 l0.66 0.66 c-0.12 0.06 -0.26 0.1 -0.42 0.14 z M176.478 20.38 c0.18 0 0.32 -0.02 0.5 -0.08 l0.66 0.66 l-0.5 0.06 z M176.258 21.08 l-0.2 0 l-0.62 -0.62 c0.16 0 0.36 0 0.54 -0.04 l0.62 0.64 c-0.12 0.02 -0.24 0.02 -0.34 0.02 z M180.798 16.28 l0 0.58 l-0.62 -0.64 l0 -0.56 z M173.698 13.120000000000001 l0 -0.56 l0.64 0.62 l0 0.54 z M173.698 12 l0 -0.58 l0.64 0.64 l0 0.54 z M180.15800000000002 10 l0.58 0.6 c0.02 0.18 0.04 0.4 0.04 0.62 l-0.6 -0.62 c0 -0.2 -0.02 -0.4 -0.02 -0.6 z M173.698 15.36 l0 -0.56 l0.64 0.62 l0 0.56 z M178.93800000000002 11.6 l0.54 0 l0.62 0.62 l-0.54 0 z M173.698 14.219999999999999 l0 -0.54 l0.64 0.62 l0 0.56 z M177.798 11.6 l0.56 0 l0.62 0.62 l-0.54 0 z M174.23800000000003 20.38 c0.2 0.02 0.4 0.04 0.62 0.04 l0.6 0.6 c-0.22 0 -0.46 -0.04 -0.66 -0.06 z M175.758 9.58 c0.44 0.04 0.88 0.2 1.14 0.64 c-0.16 -0.04 -0.34 -0.04 -0.52 -0.04 z M173.758 15.98 l0.58 0.58 l0.06 0.5 c-0.34 -0.2 -0.56 -0.58 -0.64 -1.08 z M172.73800000000003 19.98 c0.24 0.12 0.52 0.22 0.82 0.28 l0.5 0.5 c-0.52 -0.18 -0.98 -0.44 -1.32 -0.78 z M180.55800000000002 9.86 l-0.52 -0.5 c-0.06 -0.24 -0.1 -0.44 -0.18 -0.64 c-0.02 -0.02 -0.06 -0.06 -0.06 -0.1 c0.34 0.34 0.58 0.74 0.76 1.24 z M180.798 15.620000000000001 l0 0.1 l-0.62 -0.62 l0 -0.18 l0.58 0.58 c0.02 0.02 0.04 0.06 0.04 0.12 z M192.29950000000002 15.379999999999999 l0 -8.4 c0 -0.1 0.08 -0.18 0.18 -0.18 l2.28 0 c0.1 0 0.18 0.08 0.18 0.18 l0 9.04 c0 2.88 -1.58 4.18 -4.56 4.18 c-2.82 0 -4.58 -1.12 -4.58 -4.18 l0 -9.04 c0 -0.1 0.08 -0.18 0.18 -0.18 l2.3 0 c0.1 0 0.18 0.08 0.18 0.18 l0 8.4 c0 1.74 0.98 2.12 1.8 2.12 l0.24 0 c1.24 0 1.8 -0.84 1.8 -2.12 z M195.79950000000002 8.2 l0 0.56 l-0.62 -0.64 l0 -0.54 z M195.17950000000002 9.26 l0 -0.56 l0.62 0.6 l0 0.58 z M195.17950000000002 10.38 l0 -0.56 l0.62 0.6 l0 0.58 z M195.17950000000002 11.5 l0 -0.54 l0.62 0.6 l0 0.56 z M195.17950000000002 12.620000000000001 l0 -0.54 l0.62 0.6 l0 0.58 z M189.33950000000002 7.82 l0 0.08 l-0.64 -0.62 l0 -0.12 l0.58 0.56 c0.02 0.04 0.06 0.06 0.06 0.1 z M195.17950000000002 13.76 l0 -0.58 l0.62 0.62 l0 0.56 z M189.33950000000002 8.46 l0 0.54 l-0.64 -0.6 l0 -0.58 z M195.17950000000002 14.879999999999999 l0 -0.58 l0.62 0.62 l0 0.56 z M189.33950000000002 9.58 l0 0.54 l-0.64 -0.6 l0 -0.56 z M195.17950000000002 16 l0 -0.58 l0.62 0.64 l0 0.54 z M195.0995 17.06 c0.04 -0.18 0.06 -0.36 0.06 -0.54 l0.62 0.66 c0 0.18 0 0.34 -0.02 0.5 z M189.33950000000002 10.7 l0 0.56 l-0.64 -0.6 l0 -0.58 z M189.33950000000002 11.82 l0 0.56 l-0.64 -0.62 l0 -0.56 z M194.8795 17.96 c0.06 -0.16 0.1 -0.3 0.12 -0.46 l0.68 0.68 c-0.04 0.14 -0.08 0.3 -0.12 0.42 z M194.4995 18.7 c0.08 -0.12 0.16 -0.24 0.2 -0.38 l0.7 0.7 c-0.06 0.14 -0.12 0.26 -0.2 0.36 z M189.33950000000002 12.96 l0 0.54 l-0.64 -0.62 l0 -0.56 z M189.33950000000002 14.059999999999999 l0 0.56 l-0.64 -0.62 l0 -0.54 z M194.9795 19.7 c-0.1 0.1 -0.18 0.2 -0.28 0.3 l-0.7 -0.7 c0.1 -0.08 0.2 -0.18 0.28 -0.28 z M193.6995 19.58 l0.68 0.68 c-0.1 0.06 -0.2 0.14 -0.32 0.22 l-0.7 -0.68 c0.12 -0.08 0.24 -0.14 0.34 -0.22 z M189.33950000000002 15.18 l0 0.58 l-0.64 -0.64 l0 -0.54 z M188.73950000000002 15.7 l0.6 0.6 c0 0.22 0.02 0.46 0.04 0.62 l-0.5 -0.5 c-0.08 -0.2 -0.12 -0.44 -0.14 -0.72 z M192.9995 19.98 l0.68 0.68 c-0.14 0.04 -0.28 0.1 -0.42 0.14 l-0.68 -0.64 c0.16 -0.06 0.28 -0.1 0.42 -0.18 z M191.67950000000002 20.36 c0.18 -0.04 0.32 -0.06 0.48 -0.1 l0.64 0.66 c-0.14 0.04 -0.3 0.06 -0.46 0.08 z M190.6595 20.46 c0.18 0 0.34 -0.04 0.52 -0.04 l0.66 0.64 c-0.18 0 -0.38 0.02 -0.56 0.02 z M190.6995 21.06 c-0.22 0 -0.42 -0.04 -0.62 -0.06 l-0.58 -0.6 c0.18 0.02 0.38 0.06 0.6 0.06 z M188.39950000000002 20.22 c0.16 0.04 0.28 0.08 0.46 0.1 l0.52 0.54 c-0.32 -0.08 -0.62 -0.2 -0.9 -0.36 l-0.4 -0.38 c0.1 0.04 0.22 0.06 0.32 0.1 z M208.661 14.780000000000001 c-0.28 0.58 -0.68 1.02 -1.24 1.28 l1.68 3.7 c0.06 0.12 -0.02 0.24 -0.14 0.24 l-2.46 0 c-0.08 0 -0.12 -0.04 -0.14 -0.1 l-1.56 -3.4 l-1.02 0 l0 3.32 c0 0.1 -0.08 0.18 -0.18 0.18 l-2.3 0 c-0.08 0 -0.14 -0.08 -0.14 -0.18 l0 -12.84 c0 -0.1 0.06 -0.18 0.14 -0.18 l4.16 0 c2.22 0 3.56 1.26 3.56 3.6 l0 2.52 c0 0.7 -0.12 1.36 -0.36 1.86 z M206.401 12.3 l0 -1.3 c0 -1.4 -0.52 -1.54 -2.04 -1.54 l-0.58 0 l0 4.42 l0.58 0 c1.26 0 2 -0.02 2.04 -1.58 z M208.921 20.88 l-0.62 -0.62 l0.56 0 l0.62 0.62 l-0.56 0 z M204.02100000000002 17.1 l0 -0.34 l0.2 0 l0.64 0.62 l-0.2 0 l0 0.34 z M207.80100000000002 20.88 l-0.62 -0.62 l0.54 0 l0.64 0.62 l-0.56 0 z M204.661 18.86 l-0.64 -0.64 l0 -0.54 l0.64 0.62 l0 0.56 z M204.661 19.98 l-0.64 -0.62 l0 -0.56 l0.64 0.62 l0 0.56 z M203.781 20.22 c0.12 -0.04 0.22 -0.16 0.24 -0.32 l0.64 0.66 l0 0.14 c0 0.1 -0.08 0.18 -0.18 0.18 l-0.06 0 z M203.30100000000002 20.88 l-0.62 -0.62 l0.58 0 l0.62 0.62 l-0.58 0 z M202.181 20.88 l-0.62 -0.62 l0.56 0 l0.64 0.62 l-0.58 0 z M209.86100000000002 10.6 l-0.58 -0.6 c-0.02 -0.22 -0.06 -0.44 -0.1 -0.64 l0.52 0.52 c0.08 0.22 0.12 0.48 0.16 0.72 z M209.901 11.76 l-0.62 -0.64 l0 -0.54 l0.62 0.62 l0 0.56 z M209.901 12.879999999999999 l-0.62 -0.62 l0 -0.56 l0.62 0.62 l0 0.56 z M209.261 13.36 c0.02 -0.14 0.02 -0.28 0.02 -0.44 l0 -0.1 l0.62 0.64 l0 0.34 l0 0.2 z M205.681 9.78 c0.14 0.08 0.24 0.18 0.34 0.34 z M205.661 10.32 l-0.56 0 l-0.62 -0.62 l0.54 0 z M209.781 15 l-0.68 -0.68 c0.02 -0.14 0.08 -0.3 0.1 -0.46 l0.66 0.66 c-0.04 0.16 -0.06 0.34 -0.08 0.48 z M204.661 10.46 l0 0.54 l-0.64 -0.62 l0 -0.58 z M208.761 15.1 c0.04 -0.08 0.06 -0.12 0.12 -0.22 c0.02 -0.06 0.04 -0.1 0.08 -0.16 l0.66 0.7 c-0.02 0.08 -0.04 0.16 -0.1 0.24 c-0.02 0.04 -0.04 0.1 -0.06 0.14 z M204.661 11.56 l0 0.56 l-0.64 -0.62 l0 -0.58 z M208.981 16.46 l-0.7 -0.7 c0.1 -0.1 0.18 -0.2 0.24 -0.3 l0.7 0.7 c-0.06 0.1 -0.14 0.2 -0.24 0.3 z M204.661 12.68 l0 0.58 l-0.64 -0.64 l0 -0.56 z M207.901 16.5 l-0.14 -0.32 c0.06 -0.06 0.14 -0.1 0.22 -0.18 l0.7 0.7 c-0.1 0.08 -0.22 0.16 -0.36 0.22 z M209.221 18.92 l-0.36 -0.36 l-0.48 -1.04 l0.38 0.38 z M204.02100000000002 13.620000000000001 l0 -0.44 l0.46 0.44 l-0.12 0 l-0.34 0 z M209.281 20.12 c0.12 -0.12 0.12 -0.3 0.08 -0.46 l-0.04 -0.06 l0.36 0.36 l0.32 0.66 c0.02 0.08 0 0.14 -0.02 0.18 z M215.3425 20 c-0.1 0 -0.16 -0.08 -0.16 -0.18 l0 -12.84 c0 -0.1 0.06 -0.18 0.16 -0.18 l2.28 0 c0.1 0 0.18 0.08 0.18 0.18 l0 12.84 c0 0.1 -0.08 0.18 -0.18 0.18 l-2.28 0 z M218.04250000000002 8.12 l0 -0.54 l0.64 0.6 l0 0.58 z M218.04250000000002 9.26 l0 -0.56 l0.64 0.6 l0 0.58 z M218.04250000000002 10.38 l0 -0.58 l0.64 0.62 l0 0.56 z M218.04250000000002 11.5 l0 -0.58 l0.64 0.64 l0 0.54 z M218.04250000000002 12.620000000000001 l0 -0.56 l0.64 0.62 l0 0.54 z M218.04250000000002 13.76 l0 -0.58 l0.64 0.62 l0 0.56 z M218.04250000000002 14.879999999999999 l0 -0.58 l0.64 0.62 l0 0.56 z M218.04250000000002 15.98 l0 -0.56 l0.64 0.6 l0 0.58 z M218.04250000000002 17.1 l0 -0.54 l0.64 0.62 l0 0.54 z M218.04250000000002 18.22 l0 -0.54 l0.64 0.6 l0 0.58 z M218.04250000000002 19.36 l0 -0.56 l0.64 0.6 l0 0.58 z M217.8025 20.22 c0.12 -0.04 0.22 -0.16 0.24 -0.32 l0.64 0.62 l0 0.18 c0 0.1 -0.08 0.18 -0.18 0.18 l-0.06 0 z M216.70250000000001 20.26 l0.58 0 l0.62 0.62 l-0.58 0 z M216.20250000000001 20.88 l-0.6 -0.62 l0.54 0 l0.64 0.62 l-0.58 0 z M223.324 9.3 c-0.1 0 -0.18 -0.08 -0.18 -0.18 l0 -2.14 c0 -0.1 0.08 -0.18 0.18 -0.18 l8.34 0 c0.1 0 0.18 0.08 0.18 0.18 l0 2.14 c0 0.1 -0.08 0.18 -0.18 0.18 l-2.84 0 l0 10.52 c0 0.1 -0.08 0.18 -0.18 0.18 l-2.3 0 c-0.1 0 -0.18 -0.08 -0.18 -0.18 l0 -10.52 l-2.84 0 z M232.104 7.16 c0.2 0.2 0.44 0.42 0.56 0.56 c0.04 0.04 0.06 0.08 0.06 0.1 l0 0.04 l-0.62 -0.64 l0 -0.06 z M232.104 8.36 l0 -0.58 l0.62 0.62 l0 0.58 z M232.104 9.12 l0 -0.22 l0.62 0.62 l0 0.48 c0 0.02 0 0.06 -0.02 0.08 l-0.68 -0.7 c0.04 -0.08 0.08 -0.16 0.08 -0.26 z M231.06400000000002 9.56 l0.56 0 l0.62 0.62 l-0.58 0 z M229.94400000000002 9.56 l0.56 0 l0.62 0.62 l-0.58 0 z M229.06400000000002 9.56 l0.3 0 l0.64 0.62 l-0.3 0 l0 0.24 l-0.64 -0.62 l0 -0.24 z M229.704 11 l0 0.56 l-0.64 -0.64 l0 -0.54 z M229.704 12.120000000000001 l0 0.56 l-0.64 -0.62 l0 -0.56 z M229.704 13.219999999999999 l0 0.58 l-0.64 -0.62 l0 -0.56 z M225.924 9.56 l0 0.46 l-0.48 -0.46 l0.48 0 z M224.94400000000002 10.18 l-0.62 -0.62 l0.54 0 l0.64 0.62 l-0.56 0 z M229.704 14.36 l0 0.56 l-0.64 -0.62 l0 -0.54 z M229.704 15.48 l0 0.58 l-0.64 -0.64 l0 -0.54 z M223.764 9.56 l0.6 0.62 l-0.16 0 c-0.06 0 -0.1 -0.02 -0.14 -0.06 l-0.56 -0.56 l0.26 0 z M229.704 16.6 l0 0.58 l-0.64 -0.62 l0 -0.58 z M229.704 17.72 l0 0.56 l-0.64 -0.6 l0 -0.58 z M229.06400000000002 18.8 l0 -0.58 l0.64 0.64 l0 0.54 z M229.704 19.98 l0 0.54 l-0.64 -0.62 l0 -0.54 z M229.46400000000003 20.88 l-0.56 0 l-0.6 -0.62 l0.36 0 c0.06 0 0.1 0 0.16 -0.04 z M228.34400000000002 20.88 l-0.54 0 l-0.64 -0.62 l0.56 0 z M226.52400000000003 20.26 l0.08 0 l0.62 0.62 c-0.06 0 -0.1 -0.02 -0.12 -0.06 z M240.5055 10.26 l1.7 -3.36 c0.06 -0.1 0.08 -0.1 0.16 -0.1 l2.24 0 c0.12 0 0.2 0.12 0.16 0.22 l-2.9 6.74 l0 6.06 c0 0.1 -0.08 0.18 -0.18 0.18 l-2.36 0 c-0.06 0 -0.14 -0.08 -0.14 -0.18 l0 -6.06 l-2.98 -6.7 c-0.04 -0.14 0.02 -0.26 0.16 -0.26 l2.24 0 c0.08 0 0.1 0 0.16 0.1 z M245.0055 7.119999999999999 c0.2 0.2 0.48 0.46 0.6 0.58 c0.06 0.06 0.08 0.12 0.06 0.2 l-0.14 0.28 l-0.66 -0.68 l0.14 -0.38 l0 0 z M244.5055 8.3 l0.18 -0.4 l0.68 0.68 l-0.18 0.4 z M245.0055 9.36 l-0.18 0.4 l-0.66 -0.68 l0.16 -0.4 z M244.68550000000002 10.16 l-0.18 0.36 l-0.68 -0.66 l0.18 -0.4 z M244.3255 10.92 l-0.16 0.38 l-0.68 -0.68 l0.18 -0.36 z M239.8055 8.08 l-0.28 -0.28 l-0.16 -0.34 l0.2 0.2 c0.06 0.06 0.12 0.12 0.14 0.16 z M243.9855 11.7 l-0.16 0.4 l-0.66 -0.68 l0.14 -0.4 z M242.8055 12.2 l0.18 -0.4 l0.68 0.68 l-0.18 0.4 z M240.5855 9.58 l-0.08 0.12 l-0.38 -0.74 l0.28 0.3 z M243.3055 13.280000000000001 l-0.18 0.38 l-0.66 -0.68 l0.16 -0.38 z M242.12550000000002 13.780000000000001 l0.18 -0.4 l0.68 0.68 l-0.18 0.4 z M242.1055 14.879999999999999 l0 -0.58 l0.62 0.62 l0 0.56 z M242.1055 16 l0 -0.58 l0.62 0.64 l0 0.54 z M242.1055 17.12 l0 -0.56 l0.62 0.62 l0 0.54 z M242.1055 18.22 l0 -0.54 l0.62 0.62 l0 0.56 z M242.1055 19.36 l0 -0.56 l0.62 0.62 l0 0.56 z M241.8655 20.22 c0.12 -0.04 0.22 -0.16 0.24 -0.32 l0.62 0.62 l0 0.18 c0 0.1 -0.06 0.18 -0.16 0.18 l-0.06 0 z M240.7655 20.26 l0.54 0 l0.62 0.62 l-0.54 0 z M240.2655 20.88 l-0.64 -0.62 l0.58 0 l0.6 0.62 l-0.54 0 z"></path></g>
			</g>
		</svg>
	