<svg xmlns="http://www.w3.org/2000/svg" xmlns:xlink="http://www.w3.org/1999/xlink" viewBox="0 0 1020 611"><defs><style>.ec3f4fe4-096b-489f-9c97-9968d547e037{isolation:isolate;}.a0575722-22e0-4908-8c62-1c4b35e2a813{fill:chocolate;}.a79626b5-b869-4216-bcfb-068a1c57307f,.f3367bd8-8b17-4b54-a61f-519492281e64{mix-blend-mode:hard-light;}.f3367bd8-8b17-4b54-a61f-519492281e64{fill:url(#f7bac3e0-6c05-4340-96c0-e0e6525ec862);}.a6b56a44-444d-41a0-91ed-7226eefd34ca{fill:#ef6926;}.b5aed692-38e5-4079-a5d9-068e088ca661{fill:none;stroke:#600;stroke-miterlimit:10;stroke-width:16px;}.bc0b8d46-af83-4447-a08a-d9e9514549e5{fill:#dd651f;}.e7edbc7e-8a57-487d-a1b4-0149cfe1b668{fill:#ff6528;}.a4d48a3e-ded7-49d0-9869-a1eb50a159ef{fill:#f98111;}.b01e5a0f-6330-410c-9139-27510f3f4e96{fill:#600;}.aefdd1f6-8da4-4192-af95-5f59fbe55414{fill:#e8591b;}.ad22f675-0447-4635-af7d-1b31f79da1db{fill:#f99;}.a79626b5-b869-4216-bcfb-068a1c57307f{fill:url(#a04e01fb-06e1-40fb-a50c-5fb3dda124a5);}</style><linearGradient id="f7bac3e0-6c05-4340-96c0-e0e6525ec862" x1="127.28" y1="344" x2="779.62" y2="344" gradientUnits="userSpaceOnUse"><stop offset="0" stop-color="#240006" stop-opacity="0.7"/><stop offset="1" stop-color="#dd651f"/></linearGradient><linearGradient id="a04e01fb-06e1-40fb-a50c-5fb3dda124a5" x1="-496.05" y1="340.51" x2="572.87" y2="340.51" gradientTransform="translate(1061.06 463.69) rotate(90)" gradientUnits="userSpaceOnUse"><stop offset="0" stop-color="#dd651f"/><stop offset="0.1" stop-color="#b20001" stop-opacity="0.95"/><stop offset="0.33" stop-color="#c96115" stop-opacity="0.86"/><stop offset="0.54" stop-color="#580004" stop-opacity="0.79"/><stop offset="0.73" stop-color="#3c0005" stop-opacity="0.74"/><stop offset="0.89" stop-color="#2a0006" stop-opacity="0.71"/><stop offset="1" stop-color="#240006" stop-opacity="0.7"/></linearGradient></defs><title>www.dien8.com - offensive security - network and wifi</title><g class="ec3f4fe4-096b-489f-9c97-9968d547e037"><g id="fa0896fa-8bf8-482c-8658-609bc6ac8e42" data-name="Capa 1"><rect class="a0575722-22e0-4908-8c62-1c4b35e2a813" x="-5.01" y="-3" width="1030.02" height="617"/><polygon class="f3367bd8-8b17-4b54-a61f-519492281e64" points="127.28 195.94 542.57 611.22 779.62 611.22 241.39 76.78 127.28 195.94"/><path class="a6b56a44-444d-41a0-91ed-7226eefd34ca" d="M553.93,216.53a55.54,55.54,0,1,1-100-33.27,8.62,8.62,0,0,0-.73-11.29h0a8.59,8.59,0,0,0-12.92.89,72.7,72.7,0,1,0,115.82-.56,8.61,8.61,0,0,0-12.93-.91h0a8.56,8.56,0,0,0-.78,11.24A55.24,55.24,0,0,1,553.93,216.53Z"/><path class="a6b56a44-444d-41a0-91ed-7226eefd34ca" d="M514.54,216.53a16.15,16.15,0,1,1-31-6.41,8.46,8.46,0,0,0-1.64-9.42l-1.58-1.58a8.59,8.59,0,0,0-13.83,2.39,35.24,35.24,0,1,0,63.33-.89,8.59,8.59,0,0,0-13.73-2.18l-1.44,1.44a8.56,8.56,0,0,0-1.68,9.74A16,16,0,0,1,514.54,216.53Z"/><line class="b5aed692-38e5-4079-a5d9-068e088ca661" x1="825.06" y1="216.64" x2="497.88" y2="216.64"/><path class="bc0b8d46-af83-4447-a08a-d9e9514549e5" d="M498.39,121.11a95.14,95.14,0,0,1,67.29,27.76l35.74-35.74L497.88,9.59,394.34,113.13l36.25,36.25A95.13,95.13,0,0,1,498.39,121.11Z"/><path class="e7edbc7e-8a57-487d-a1b4-0149cfe1b668" d="M498.39,143.83A72.35,72.35,0,0,1,542.83,159a10.21,10.21,0,0,0,13.49-.77L558,156.5a10.17,10.17,0,0,0-.94-15.2,95.45,95.45,0,0,0-118,.49,10.17,10.17,0,0,0-.89,15.16l1.72,1.73a10.15,10.15,0,0,0,13.46.78A72.38,72.38,0,0,1,498.39,143.83Z"/><path class="e7edbc7e-8a57-487d-a1b4-0149cfe1b668" d="M498.39,181.29A35.09,35.09,0,0,1,517,186.6a10.09,10.09,0,0,0,12.45-1.49h0a10.11,10.11,0,0,0-1.66-15.7,55.53,55.53,0,0,0-59.49.44,10.13,10.13,0,0,0-1.57,15.65h0a10.08,10.08,0,0,0,12.57,1.42A35,35,0,0,1,498.39,181.29Z"/><circle class="a6b56a44-444d-41a0-91ed-7226eefd34ca" cx="610.48" cy="216.64" r="16.16"/><circle class="a6b56a44-444d-41a0-91ed-7226eefd34ca" cx="711.96" cy="217.14" r="16.16"/><polyline class="b5aed692-38e5-4079-a5d9-068e088ca661" points="266.13 614 266.13 396.38 580.18 396.38"/><line class="b5aed692-38e5-4079-a5d9-068e088ca661" x1="498.39" y1="216.13" x2="498.39" y2="396.38"/><circle class="e7edbc7e-8a57-487d-a1b4-0149cfe1b668" cx="498.89" cy="216.13" r="16.16"/><path class="a4d48a3e-ded7-49d0-9869-a1eb50a159ef" d="M557.12,157.43h0a11.36,11.36,0,0,0-1,15,72.71,72.71,0,1,1-115.39-.19,10.18,10.18,0,0,0-.78-13.43L438.21,157a10.1,10.1,0,0,0-15.1.88A95,95,0,0,0,403,216.13c-.22,52.08,42,95.1,94.07,95.82a95.42,95.42,0,0,0,77.07-153.5A11.33,11.33,0,0,0,557.12,157.43Z"/><path class="a4d48a3e-ded7-49d0-9869-a1eb50a159ef" d="M499.22,272.07a55.55,55.55,0,0,0,46.06-85.3A10.14,10.14,0,0,0,529.55,185h0a10.08,10.08,0,0,0-1.49,12.52,35.25,35.25,0,1,1-59.67.52,10.06,10.06,0,0,0-1.51-12.37l-.05,0A10.14,10.14,0,0,0,451,187.56a55.55,55.55,0,0,0,48.22,84.51Z"/><path class="a6b56a44-444d-41a0-91ed-7226eefd34ca" d="M880.1,216.53a55.54,55.54,0,1,1-100-33.27,8.62,8.62,0,0,0-.73-11.29h0a8.59,8.59,0,0,0-12.92.89,72.71,72.71,0,1,0,115.82-.56,8.61,8.61,0,0,0-12.93-.91h0a8.54,8.54,0,0,0-.78,11.24A55.3,55.3,0,0,1,880.1,216.53Z"/><path class="a6b56a44-444d-41a0-91ed-7226eefd34ca" d="M840.72,216.53a16.16,16.16,0,1,1-31-6.41,8.46,8.46,0,0,0-1.64-9.42l-1.58-1.58a8.59,8.59,0,0,0-13.83,2.39,35.24,35.24,0,1,0,63.33-.89,8.59,8.59,0,0,0-13.73-2.18l-1.44,1.44a8.56,8.56,0,0,0-1.68,9.74A16,16,0,0,1,840.72,216.53Z"/><path class="bc0b8d46-af83-4447-a08a-d9e9514549e5" d="M824.56,121.11a95.12,95.12,0,0,1,67.29,27.76l35.74-35.74L824.05,9.59,720.52,113.13l36.25,36.25A95.11,95.11,0,0,1,824.56,121.11Z"/><path class="e7edbc7e-8a57-487d-a1b4-0149cfe1b668" d="M824.56,143.83A72.38,72.38,0,0,1,869,159a10.2,10.2,0,0,0,13.48-.77l1.73-1.73a10.17,10.17,0,0,0-1-15.2,95.45,95.45,0,0,0-118,.49,10.17,10.17,0,0,0-.89,15.16l1.72,1.73a10.15,10.15,0,0,0,13.46.78A72.38,72.38,0,0,1,824.56,143.83Z"/><path class="e7edbc7e-8a57-487d-a1b4-0149cfe1b668" d="M824.56,181.29a35.09,35.09,0,0,1,18.6,5.31,10.09,10.09,0,0,0,12.45-1.49h0a10.12,10.12,0,0,0-1.65-15.7,55.53,55.53,0,0,0-59.49.44,10.13,10.13,0,0,0-1.58,15.65h0a10.08,10.08,0,0,0,12.57,1.42A35,35,0,0,1,824.56,181.29Z"/><circle class="e7edbc7e-8a57-487d-a1b4-0149cfe1b668" cx="825.06" cy="216.13" r="16.16"/><path class="a4d48a3e-ded7-49d0-9869-a1eb50a159ef" d="M883.29,157.43h0a11.36,11.36,0,0,0-1,15,72.71,72.71,0,1,1-115.39-.19,10.18,10.18,0,0,0-.78-13.43L764.38,157a10.1,10.1,0,0,0-15.1.88,95,95,0,0,0-20.15,58.25c-.22,52.08,42,95.1,94.07,95.82a95.42,95.42,0,0,0,77.07-153.5A11.33,11.33,0,0,0,883.29,157.43Z"/><path class="a4d48a3e-ded7-49d0-9869-a1eb50a159ef" d="M825.39,272.07a55.56,55.56,0,0,0,46.07-85.3A10.14,10.14,0,0,0,855.73,185h0a10.07,10.07,0,0,0-1.5,12.52,35.24,35.24,0,1,1-59.67.52,10.05,10.05,0,0,0-1.5-12.37l-.06,0a10.14,10.14,0,0,0-15.83,1.94,55.55,55.55,0,0,0,48.22,84.51Z"/><path class="a6b56a44-444d-41a0-91ed-7226eefd34ca" d="M186.35,490.2a55.54,55.54,0,1,1-100-33.28,8.62,8.62,0,0,0-.74-11.29h0a8.59,8.59,0,0,0-12.92.89A72.71,72.71,0,1,0,188.51,446a8.62,8.62,0,0,0-12.93-.91h0a8.52,8.52,0,0,0-.78,11.23A55.3,55.3,0,0,1,186.35,490.2Z"/><path class="a6b56a44-444d-41a0-91ed-7226eefd34ca" d="M147,490.2a16.16,16.16,0,1,1-31-6.42,8.46,8.46,0,0,0-1.65-9.42l-1.58-1.58a8.59,8.59,0,0,0-13.83,2.39,35.25,35.25,0,1,0,63.33-.89,8.6,8.6,0,0,0-13.73-2.18l-1.44,1.44a8.57,8.57,0,0,0-1.67,9.74A16.17,16.17,0,0,1,147,490.2Z"/><path class="bc0b8d46-af83-4447-a08a-d9e9514549e5" d="M130.81,394.77a95.11,95.11,0,0,1,67.29,27.76l35.74-35.74L130.31,283.25,26.77,386.79,63,423A95.11,95.11,0,0,1,130.81,394.77Z"/><path class="a4d48a3e-ded7-49d0-9869-a1eb50a159ef" d="M189.55,431.09h0a11.37,11.37,0,0,0-1,15,72.71,72.71,0,1,1-115.39-.2,10.17,10.17,0,0,0-.78-13.42l-1.78-1.78a10.1,10.1,0,0,0-15.1.88,95,95,0,0,0-20.15,58.25c-.22,52.08,42,95.1,94.07,95.82a95.43,95.43,0,0,0,77.07-153.5A11.33,11.33,0,0,0,189.55,431.09Z"/><path class="a4d48a3e-ded7-49d0-9869-a1eb50a159ef" d="M131.64,545.73a55.54,55.54,0,0,0,46.07-85.29A10.13,10.13,0,0,0,162,458.66h0a10.08,10.08,0,0,0-1.49,12.53,35.24,35.24,0,1,1-59.68.51,10,10,0,0,0-1.5-12.37l0-.05a10.14,10.14,0,0,0-15.83,1.94,55.54,55.54,0,0,0,48.21,84.51Z"/><circle class="a6b56a44-444d-41a0-91ed-7226eefd34ca" cx="266.13" cy="396.38" r="16.16"/><polyline class="b5aed692-38e5-4079-a5d9-068e088ca661" points="130.31 489.79 58.61 489.79 58.61 -3"/><polyline class="b5aed692-38e5-4079-a5d9-068e088ca661" points="181.81 135.34 359.54 135.34 359.54 395.88"/><path class="e7edbc7e-8a57-487d-a1b4-0149cfe1b668" d="M130.81,417.49a72.38,72.38,0,0,1,44.45,15.17,10.2,10.2,0,0,0,13.49-.77l1.72-1.72a10.17,10.17,0,0,0-.95-15.21,95.44,95.44,0,0,0-118,.49,10.17,10.17,0,0,0-.9,15.16l1.73,1.73a10.14,10.14,0,0,0,13.46.78A72.4,72.4,0,0,1,130.81,417.49Z"/><path class="e7edbc7e-8a57-487d-a1b4-0149cfe1b668" d="M130.81,455a35.12,35.12,0,0,1,18.61,5.31,10.07,10.07,0,0,0,12.44-1.49h0a10.11,10.11,0,0,0-1.66-15.7,55.56,55.56,0,0,0-59.49.45,10.12,10.12,0,0,0-1.58,15.64h0a10.09,10.09,0,0,0,12.58,1.42A35,35,0,0,1,130.81,455Z"/><circle class="e7edbc7e-8a57-487d-a1b4-0149cfe1b668" cx="131.32" cy="489.79" r="16.16"/><rect class="bc0b8d46-af83-4447-a08a-d9e9514549e5" x="553.6" y="385.28" width="66.65" height="22.22" transform="translate(452.2 -298.92) rotate(45)"/><rect class="bc0b8d46-af83-4447-a08a-d9e9514549e5" x="553.6" y="385.28" width="66.65" height="22.22" transform="translate(1282.23 261.66) rotate(135)"/><circle class="a6b56a44-444d-41a0-91ed-7226eefd34ca" cx="359.54" cy="396.89" r="16.16"/><circle class="a6b56a44-444d-41a0-91ed-7226eefd34ca" cx="359.54" cy="135.35" r="16.16"/><rect class="b01e5a0f-6330-410c-9139-27510f3f4e96" x="253.73" y="177.87" width="38.83" height="95.58" transform="translate(-79.56 259.24) rotate(-45)"/><circle class="aefdd1f6-8da4-4192-af95-5f59fbe55414" cx="183.12" cy="135.1" r="82.14"/><circle class="ad22f675-0447-4635-af7d-1b31f79da1db" cx="183.12" cy="135.1" r="61.98"/><rect class="e7edbc7e-8a57-487d-a1b4-0149cfe1b668" x="148.58" y="124.18" width="66.65" height="22.22" transform="translate(148.94 -89) rotate(45)"/><rect class="e7edbc7e-8a57-487d-a1b4-0149cfe1b668" x="148.58" y="124.18" width="66.65" height="22.22" transform="translate(406.19 102.32) rotate(135)"/><polygon class="a79626b5-b869-4216-bcfb-068a1c57307f" points="416.09 614 801.55 614 1025.01 388.96 1025.01 5.08 416.09 614"/><rect class="ad22f675-0447-4635-af7d-1b31f79da1db" x="765.73" y="328.9" width="190.9" height="285.1"/><path class="b01e5a0f-6330-410c-9139-27510f3f4e96" d="M910.36,376a28.07,28.07,0,0,1,17.24,5.88,3.94,3.94,0,0,0,5.23-.3l.67-.67a3.93,3.93,0,0,0-.37-5.89,37,37,0,0,0-45.79.19,4,4,0,0,0-.35,5.88l.67.67a3.94,3.94,0,0,0,5.23.3A28.1,28.1,0,0,1,910.36,376Z"/><path class="b01e5a0f-6330-410c-9139-27510f3f4e96" d="M914.81,450.33a28.06,28.06,0,0,1,16.35-8,4,4,0,0,0,3.49-3.91v-.95a3.94,3.94,0,0,0-4.43-3.91A37,37,0,0,0,898,466a3.94,3.94,0,0,0,3.91,4.41h1a4,4,0,0,0,3.91-3.48A28,28,0,0,1,914.81,450.33Z"/><polygon class="b01e5a0f-6330-410c-9139-27510f3f4e96" points="831.03 203 731.98 301.27 930.09 301.27 831.03 203"/><polygon class="b01e5a0f-6330-410c-9139-27510f3f4e96" points="889.34 203 790.29 301.27 988.4 301.27 889.34 203"/><rect class="b01e5a0f-6330-410c-9139-27510f3f4e96" x="695.66" y="301.27" width="329.06" height="27.63" transform="translate(1720.37 630.17) rotate(180)"/><rect class="b01e5a0f-6330-410c-9139-27510f3f4e96" x="688.53" y="452.75" width="80.38" height="32.65" transform="translate(-99.02 725.79) rotate(-50)"/><circle class="aefdd1f6-8da4-4192-af95-5f59fbe55414" cx="797.12" cy="387.73" r="69.08"/><circle class="ad22f675-0447-4635-af7d-1b31f79da1db" cx="797.12" cy="387.73" r="52.12"/><circle class="b01e5a0f-6330-410c-9139-27510f3f4e96" cx="797.12" cy="387.73" r="16.33"/><path class="ad22f675-0447-4635-af7d-1b31f79da1db" d="M728.78,454.13l22.61,21.66s-22,49.67,4.34,76l-37.44,37.44s-39.95-31.84-52.41-97.78l34-42.07Z"/><path class="a4d48a3e-ded7-49d0-9869-a1eb50a159ef" d="M903.36,595.42a190.31,190.31,0,0,1-134.83-55.76l-65.28,65.27q4.65,4.65,9.52,9.07H1025V595.42Z"/></g></g></svg>
